<svg width="25" height="25" viewBox="0 0 25 25" fill="none" xmlns="http://www.w3.org/2000/svg">
<path d="M2.44141 16.5C2.44141 14.1611 2.44141 12.9917 2.97788 12.1379C3.25762 11.6927 3.63408 11.3162 4.0793 11.0365C4.93308 10.5 6.10252 10.5 8.44141 10.5H16.4414C18.7803 10.5 19.9497 10.5 20.8035 11.0365C21.2487 11.3162 21.6252 11.6927 21.9049 12.1379C22.4414 12.9917 22.4414 14.1611 22.4414 16.5C22.4414 18.8389 22.4414 20.0083 21.9049 20.8621C21.6252 21.3073 21.2487 21.6838 20.8035 21.9635C19.9497 22.5 18.7803 22.5 16.4414 22.5H8.44141C6.10252 22.5 4.93308 22.5 4.0793 21.9635C3.63408 21.6838 3.25762 21.3073 2.97788 20.8621C2.44141 20.0083 2.44141 18.8389 2.44141 16.5Z" stroke="#984848" stroke-width="1.5" stroke-linecap="round" stroke-linejoin="round"/>
<path d="M20.4414 10.5C20.4414 9.09987 20.4414 8.3998 20.1689 7.86502C19.9292 7.39462 19.5468 7.01217 19.0764 6.77248C18.5416 6.5 17.8415 6.5 16.4414 6.5H8.44141C7.04128 6.5 6.34121 6.5 5.80643 6.77248C5.33603 7.01217 4.95358 7.39462 4.71389 7.86502C4.44141 8.3998 4.44141 9.09987 4.44141 10.5" stroke="#984848" stroke-width="1.5" stroke-linecap="round" stroke-linejoin="round"/>
<path d="M18.4414 6.5C18.4414 4.61438 18.4414 3.67157 17.8556 3.08579C17.2698 2.5 16.327 2.5 14.4414 2.5H10.4414C8.55579 2.5 7.61298 2.5 7.0272 3.08579C6.44141 3.67157 6.44141 4.61438 6.44141 6.5" stroke="#984848" stroke-width="1.5" stroke-linecap="round" stroke-linejoin="round"/>
<path d="M15.4414 14.5C15.4414 15.6046 14.546 16.5 13.4414 16.5H11.4414C10.3368 16.5 9.44141 15.6046 9.44141 14.5" stroke="#984848" stroke-width="1.5" stroke-linecap="round"/>
</svg>
