<svg width="34.26px" height="34.26px" viewBox="0 0 36 35" fill="none" xmlns="http://www.w3.org/2000/svg">
<path fill-rule="evenodd" clip-rule="evenodd" d="M17.9286 1.82812C11.8186 1.82812 6.86544 6.78126 6.86544 12.8913V13.8964C6.86544 14.8912 6.57097 15.8638 6.01912 16.6916L4.37949 19.151C2.47649 22.0055 3.92927 25.8855 7.23906 26.7882C8.3177 27.0824 9.40545 27.3312 10.4995 27.5347L10.5022 27.542C11.5999 30.4711 14.5339 32.5194 17.9285 32.5194C21.3231 32.5194 24.257 30.4711 25.3548 27.542L25.3575 27.5347C26.4516 27.3312 27.5394 27.0824 28.6181 26.7882C31.9279 25.8855 33.3807 22.0055 31.4777 19.151L29.838 16.6916C29.2862 15.8638 28.9917 14.8912 28.9917 13.8964V12.8913C28.9917 6.78126 24.0386 1.82812 17.9286 1.82812ZM22.7484 27.9328C19.5466 28.3153 16.3104 28.3153 13.1086 27.9328C14.1234 29.391 15.8886 30.3782 17.9285 30.3782C19.9683 30.3782 21.7335 29.391 22.7484 27.9328ZM9.0067 12.8913C9.0067 7.96384 13.0012 3.96938 17.9286 3.96938C22.856 3.96938 26.8505 7.96384 26.8505 12.8913V13.8964C26.8505 15.314 27.2701 16.6998 28.0564 17.8794L29.6961 20.3388C30.7883 21.9772 29.9545 24.2043 28.0547 24.7224C21.425 26.5305 14.4321 26.5305 7.80246 24.7224C5.9027 24.2043 5.06883 21.9772 6.16111 20.3388L7.80075 17.8793C8.58709 16.6998 9.0067 15.314 9.0067 13.8964V12.8913Z" fill="#B65535"/>
</svg>
