<svg width="25" height="25" viewBox="0 0 25 25" fill="none" xmlns="http://www.w3.org/2000/svg">
<path d="M10.4717 9.46965C10.1788 9.17676 9.70394 9.17676 9.41105 9.46965C9.11815 9.76255 9.11815 10.2374 9.41105 10.5303L11.3807 12.5L9.41107 14.4697C9.11817 14.7625 9.11817 15.2374 9.41107 15.5303C9.70396 15.8232 10.1788 15.8232 10.4717 15.5303L12.4414 13.5607L14.411 15.5303C14.7039 15.8232 15.1788 15.8232 15.4717 15.5303C15.7646 15.2374 15.7646 14.7625 15.4717 14.4696L13.502 12.5L15.4717 10.5303C15.7646 10.2374 15.7646 9.76257 15.4717 9.46968C15.1788 9.17678 14.7039 9.17678 14.411 9.46968L12.4414 11.4393L10.4717 9.46965Z" fill="#DC9C87"/>
<path fill-rule="evenodd" clip-rule="evenodd" d="M12.4414 1.75C6.50435 1.75 1.69141 6.56294 1.69141 12.5C1.69141 18.4371 6.50435 23.25 12.4414 23.25C18.3785 23.25 23.1914 18.4371 23.1914 12.5C23.1914 6.56294 18.3785 1.75 12.4414 1.75ZM3.19141 12.5C3.19141 7.39137 7.33277 3.25 12.4414 3.25C17.55 3.25 21.6914 7.39137 21.6914 12.5C21.6914 17.6086 17.55 21.75 12.4414 21.75C7.33277 21.75 3.19141 17.6086 3.19141 12.5Z" fill="#DC9C87"/>
</svg>
