<svg width="25" height="25" viewBox="0 0 25 25" fill="none" xmlns="http://www.w3.org/2000/svg">
<path d="M8.94141 12.5H8.95041M12.9324 12.5H12.9414M16.9324 12.5H16.9414" stroke="#DC9C87" stroke-width="2" stroke-linecap="round" stroke-linejoin="round"/>
<path d="M12.9414 22.5C18.4643 22.5 22.9414 18.0228 22.9414 12.5C22.9414 6.97715 18.4643 2.5 12.9414 2.5C7.41856 2.5 2.94141 6.97715 2.94141 12.5C2.94141 14.0997 3.31702 15.6116 3.98487 16.9525C4.16234 17.3088 4.22142 17.7161 4.11852 18.1006L3.52292 20.3267C3.26436 21.293 4.14842 22.177 5.11475 21.9185L7.34079 21.3229C7.72534 21.22 8.13261 21.2791 8.48893 21.4565C9.82977 22.1244 11.3417 22.5 12.9414 22.5Z" stroke="#DC9C87" stroke-width="1.5"/>
</svg>
