<svg width="25" height="25" viewBox="0 0 25 25" fill="none" xmlns="http://www.w3.org/2000/svg">
<path d="M16.4717 10.5303C16.7646 10.2374 16.7646 9.76256 16.4717 9.46967C16.1788 9.17678 15.704 9.17678 15.4111 9.46967L10.9414 13.9393L9.47174 12.4697C9.17884 12.1768 8.70397 12.1768 8.41108 12.4697C8.11818 12.7626 8.11818 13.2374 8.41108 13.5303L10.4111 15.5303C10.704 15.8232 11.1788 15.8232 11.4717 15.5303L16.4717 10.5303Z" fill="white"/>
<path fill-rule="evenodd" clip-rule="evenodd" d="M12.4414 1.75C6.50435 1.75 1.69141 6.56294 1.69141 12.5C1.69141 18.4371 6.50435 23.25 12.4414 23.25C18.3785 23.25 23.1914 18.4371 23.1914 12.5C23.1914 6.56294 18.3785 1.75 12.4414 1.75ZM3.19141 12.5C3.19141 7.39137 7.33277 3.25 12.4414 3.25C17.55 3.25 21.6914 7.39137 21.6914 12.5C21.6914 17.6086 17.55 21.75 12.4414 21.75C7.33277 21.75 3.19141 17.6086 3.19141 12.5Z" fill="white"/>
</svg>
