<svg width="25" height="24" viewBox="0 0 25 24" fill="none" xmlns="http://www.w3.org/2000/svg">
<path d="M17.1074 14C17.6597 14 18.1074 13.5523 18.1074 13C18.1074 12.4477 17.6597 12 17.1074 12C16.5551 12 16.1074 12.4477 16.1074 13C16.1074 13.5523 16.5551 14 17.1074 14Z" fill="#54514E"/>
<path d="M17.1074 18C17.6597 18 18.1074 17.5523 18.1074 17C18.1074 16.4477 17.6597 16 17.1074 16C16.5551 16 16.1074 16.4477 16.1074 17C16.1074 17.5523 16.5551 18 17.1074 18Z" fill="#54514E"/>
<path d="M13.1074 13C13.1074 13.5523 12.6597 14 12.1074 14C11.5551 14 11.1074 13.5523 11.1074 13C11.1074 12.4477 11.5551 12 12.1074 12C12.6597 12 13.1074 12.4477 13.1074 13Z" fill="#54514E"/>
<path d="M13.1074 17C13.1074 17.5523 12.6597 18 12.1074 18C11.5551 18 11.1074 17.5523 11.1074 17C11.1074 16.4477 11.5551 16 12.1074 16C12.6597 16 13.1074 16.4477 13.1074 17Z" fill="#54514E"/>
<path d="M7.10742 14C7.65971 14 8.10742 13.5523 8.10742 13C8.10742 12.4477 7.65971 12 7.10742 12C6.55514 12 6.10742 12.4477 6.10742 13C6.10742 13.5523 6.55514 14 7.10742 14Z" fill="#54514E"/>
<path d="M7.10742 18C7.65971 18 8.10742 17.5523 8.10742 17C8.10742 16.4477 7.65971 16 7.10742 16C6.55514 16 6.10742 16.4477 6.10742 17C6.10742 17.5523 6.55514 18 7.10742 18Z" fill="#54514E"/>
<path fill-rule="evenodd" clip-rule="evenodd" d="M7.10742 1.75C7.52164 1.75 7.85742 2.08579 7.85742 2.5V3.26272C8.51942 3.24999 9.24875 3.24999 10.0509 3.25H14.1638C14.966 3.24999 15.6954 3.24999 16.3574 3.26272V2.5C16.3574 2.08579 16.6932 1.75 17.1074 1.75C17.5216 1.75 17.8574 2.08579 17.8574 2.5V3.32709C18.1174 3.34691 18.3635 3.37182 18.5964 3.40313C19.7689 3.56076 20.7178 3.89288 21.4662 4.64124C22.2145 5.38961 22.5467 6.33855 22.7043 7.51098C22.8574 8.65018 22.8574 10.1058 22.8574 11.9435V14.0564C22.8574 15.8941 22.8574 17.3498 22.7043 18.489C22.5467 19.6614 22.2145 20.6104 21.4662 21.3588C20.7178 22.1071 19.7689 22.4392 18.5964 22.5969C17.4572 22.75 16.0016 22.75 14.1639 22.75H10.051C8.21327 22.75 6.75761 22.75 5.6184 22.5969C4.44598 22.4392 3.49703 22.1071 2.74867 21.3588C2.0003 20.6104 1.66819 19.6614 1.51056 18.489C1.35739 17.3498 1.35741 15.8942 1.35742 14.0564V11.9436C1.35741 10.1058 1.35739 8.65019 1.51056 7.51098C1.66819 6.33855 2.0003 5.38961 2.74867 4.64124C3.49703 3.89288 4.44598 3.56076 5.6184 3.40313C5.85133 3.37182 6.09748 3.34691 6.35742 3.32709V2.5C6.35742 2.08579 6.69321 1.75 7.10742 1.75ZM5.81827 4.88976C4.81218 5.02502 4.23254 5.27869 3.80933 5.7019C3.38612 6.12511 3.13245 6.70476 2.99718 7.71085C2.97427 7.88123 2.95512 8.06061 2.93911 8.25H21.2757C21.2597 8.06061 21.2406 7.88124 21.2177 7.71085C21.0824 6.70476 20.8287 6.12511 20.4055 5.7019C19.9823 5.27869 19.4027 5.02502 18.3966 4.88976C17.3689 4.75159 16.0142 4.75 14.1074 4.75H10.1074C8.2006 4.75 6.84594 4.75159 5.81827 4.88976ZM2.85742 12C2.85742 11.146 2.85774 10.4027 2.87051 9.75H21.3443C21.3571 10.4027 21.3574 11.146 21.3574 12V14C21.3574 15.9068 21.3558 17.2615 21.2177 18.2892C21.0824 19.2952 20.8287 19.8749 20.4055 20.2981C19.9823 20.7213 19.4027 20.975 18.3966 21.1102C17.3689 21.2484 16.0142 21.25 14.1074 21.25H10.1074C8.2006 21.25 6.84593 21.2484 5.81827 21.1102C4.81218 20.975 4.23254 20.7213 3.80933 20.2981C3.38612 19.8749 3.13245 19.2952 2.99718 18.2892C2.85902 17.2615 2.85742 15.9068 2.85742 14V12Z" fill="#54514E"/>
</svg>
