<svg width="41" height="41" viewBox="0 0 41 41" fill="none" xmlns="http://www.w3.org/2000/svg">
<path d="M28.9415 14.2998H11.9414" stroke="#984848" stroke-width="1.5" stroke-linecap="round"/>
<path d="M27.2741 16.7998L26.8141 23.6989C26.6372 26.3538 26.5487 27.6813 25.6836 28.4905C24.8186 29.2998 23.4882 29.2998 20.8274 29.2998H20.0541C17.3933 29.2998 16.0629 29.2998 15.1979 28.4905C14.3329 27.6813 14.2444 26.3538 14.0674 23.6989L13.6074 16.7998" stroke="#984848" stroke-width="1.5" stroke-linecap="round"/>
<path d="M17.9414 19.2998L18.4414 24.2998" stroke="#984848" stroke-width="1.5" stroke-linecap="round"/>
<path d="M22.9414 19.2998L22.4414 24.2998" stroke="#984848" stroke-width="1.5" stroke-linecap="round"/>
<path d="M14.9414 14.2998C14.9973 14.2998 15.0252 14.2998 15.0506 14.2992C15.874 14.2783 16.6004 13.7547 16.8806 12.9801C16.8892 12.9563 16.8981 12.9298 16.9157 12.8768L17.0128 12.5855C17.0957 12.3369 17.1372 12.2126 17.1921 12.107C17.4114 11.6859 17.8171 11.3934 18.286 11.3186C18.4035 11.2998 18.5346 11.2998 18.7967 11.2998H22.0861C22.3482 11.2998 22.4793 11.2998 22.5968 11.3186C23.0657 11.3934 23.4714 11.6859 23.6907 12.107C23.7457 12.2126 23.7871 12.3369 23.87 12.5855L23.9671 12.8768C23.9847 12.9297 23.9936 12.9563 24.0022 12.9801C24.2824 13.7547 25.0088 14.2783 25.8323 14.2992C25.8576 14.2998 25.8855 14.2998 25.9414 14.2998" stroke="#984848" stroke-width="1.5"/>
</svg>
