<svg width="25" height="25" viewBox="0 0 25 25" fill="none" xmlns="http://www.w3.org/2000/svg">
<path d="M22.0234 11V12.5C22.0234 17.214 22.0234 19.5711 20.559 21.0355C19.0945 22.5 16.7375 22.5 12.0234 22.5C7.30939 22.5 4.95237 22.5 3.4879 21.0355C2.02344 19.5711 2.02344 17.214 2.02344 12.5C2.02344 7.78595 2.02344 5.42893 3.4879 3.96447C4.95237 2.5 7.30939 2.5 12.0234 2.5H13.5234" stroke="#1D1C1B" stroke-width="1.5" stroke-linecap="round"/>
<path d="M22.0234 11V12.5C22.0234 17.214 22.0234 19.5711 20.559 21.0355C19.0945 22.5 16.7375 22.5 12.0234 22.5C7.30939 22.5 4.95237 22.5 3.4879 21.0355C2.02344 19.5711 2.02344 17.214 2.02344 12.5C2.02344 7.78595 2.02344 5.42893 3.4879 3.96447C4.95237 2.5 7.30939 2.5 12.0234 2.5H13.5234" stroke="black" stroke-opacity="0.2" stroke-width="1.5" stroke-linecap="round"/>
<path d="M16.6755 3.95506L17.3243 3.30624C18.3993 2.23125 20.1422 2.23125 21.2172 3.30624C22.2922 4.38124 22.2922 6.12415 21.2172 7.19914L20.5684 7.84795M16.6755 3.95506C16.6755 3.95506 16.7566 5.33379 17.9731 6.55032C19.1896 7.76685 20.5684 7.84795 20.5684 7.84795M16.6755 3.95506L10.7106 9.91993C10.3066 10.3239 10.1046 10.5259 9.93087 10.7487C9.72593 11.0114 9.55023 11.2957 9.40688 11.5965C9.28535 11.8515 9.19501 12.1225 9.01433 12.6646L8.43586 14.4M20.5684 7.84795L14.6035 13.8128C14.1995 14.2168 13.9975 14.4188 13.7748 14.5926C13.512 14.7975 13.2277 14.9732 12.9269 15.1166C12.6719 15.2381 12.4009 15.3284 11.8589 15.5091L10.1234 16.0876M10.1234 16.0876L9.00053 16.4619C8.73378 16.5508 8.4397 16.4814 8.24088 16.2826C8.04206 16.0837 7.97264 15.7897 8.06155 15.5229L8.43586 14.4M10.1234 16.0876L8.43586 14.4" stroke="#1D1C1B" stroke-width="1.5"/>
<path d="M16.6755 3.95506L17.3243 3.30624C18.3993 2.23125 20.1422 2.23125 21.2172 3.30624C22.2922 4.38124 22.2922 6.12415 21.2172 7.19914L20.5684 7.84795M16.6755 3.95506C16.6755 3.95506 16.7566 5.33379 17.9731 6.55032C19.1896 7.76685 20.5684 7.84795 20.5684 7.84795M16.6755 3.95506L10.7106 9.91993C10.3066 10.3239 10.1046 10.5259 9.93087 10.7487C9.72593 11.0114 9.55023 11.2957 9.40688 11.5965C9.28535 11.8515 9.19501 12.1225 9.01433 12.6646L8.43586 14.4M20.5684 7.84795L14.6035 13.8128C14.1995 14.2168 13.9975 14.4188 13.7748 14.5926C13.512 14.7975 13.2277 14.9732 12.9269 15.1166C12.6719 15.2381 12.4009 15.3284 11.8589 15.5091L10.1234 16.0876M10.1234 16.0876L9.00053 16.4619C8.73378 16.5508 8.4397 16.4814 8.24088 16.2826C8.04206 16.0837 7.97264 15.7897 8.06155 15.5229L8.43586 14.4M10.1234 16.0876L8.43586 14.4" stroke="black" stroke-opacity="0.2" stroke-width="1.5"/>
</svg>
