<svg width="19" height="19" viewBox="0 0 19 19" fill="none" xmlns="http://www.w3.org/2000/svg">
<path d="M11.3295 3.16293L12.071 2.42142C13.2995 1.19286 15.2914 1.19286 16.52 2.42142C17.7485 3.64999 17.7485 5.64188 16.52 6.87044L15.7785 7.61195M11.3295 3.16293C11.3295 3.16293 11.4221 4.73862 12.8125 6.12894C14.2028 7.51926 15.7785 7.61195 15.7785 7.61195M11.3295 3.16293L4.51247 9.97992C4.05074 10.4416 3.81987 10.6725 3.62132 10.9271C3.38711 11.2273 3.18631 11.5522 3.02248 11.896C2.88359 12.1874 2.78035 12.4972 2.57385 13.1167L1.69885 15.7417M15.7785 7.61195L8.96149 14.4289C8.49976 14.8907 8.26889 15.1215 8.01434 15.3201C7.71406 15.5543 7.38916 15.7551 7.04539 15.9189C6.75396 16.0578 6.44422 16.1611 5.82475 16.3675L3.19974 17.2426M3.19974 17.2426L2.55808 17.4564C2.25323 17.5581 1.91713 17.4787 1.68991 17.2515C1.46269 17.0243 1.38335 16.6882 1.48496 16.3833L1.69885 15.7417M3.19974 17.2426L1.69885 15.7417" stroke="#F7AF44" stroke-width="1.5"/>
</svg>
