<svg width="23" height="23" viewBox="0 0 23 23" fill="none" xmlns="http://www.w3.org/2000/svg">
<path fill-rule="evenodd" clip-rule="evenodd" d="M11.384 0.75L12.9414 0.75C13.3556 0.75 13.6914 1.08579 13.6914 1.5C13.6914 1.91421 13.3556 2.25 12.9414 2.25H11.4414C9.06318 2.25 7.35496 2.25159 6.05498 2.42637C4.77658 2.59825 4.00586 2.92514 3.4362 3.4948C2.86655 4.06445 2.53965 4.83517 2.36778 6.11358C2.193 7.41356 2.19141 9.12177 2.19141 11.5C2.19141 13.8782 2.193 15.5864 2.36778 16.8864C2.53965 18.1648 2.86655 18.9355 3.4362 19.5052C4.00586 20.0749 4.77658 20.4018 6.05498 20.5736C7.35496 20.7484 9.06318 20.75 11.4414 20.75C13.8196 20.75 15.5279 20.7484 16.8278 20.5736C18.1062 20.4018 18.877 20.0749 19.4466 19.5052C20.0163 18.9355 20.3432 18.1648 20.515 16.8864C20.6898 15.5864 20.6914 13.8782 20.6914 11.5V10C20.6914 9.58579 21.0272 9.25 21.4414 9.25C21.8556 9.25 22.1914 9.58579 22.1914 10V11.5574C22.1914 13.8658 22.1914 15.6748 22.0017 17.0863C21.8074 18.531 21.4021 19.6711 20.5073 20.5659C19.6125 21.4607 18.4724 21.866 17.0277 22.0603C15.6162 22.25 13.8072 22.25 11.4988 22.25H11.384C9.07564 22.25 7.2666 22.25 5.85511 22.0603C4.41038 21.866 3.27035 21.4607 2.37554 20.5659C1.48073 19.6711 1.07539 18.531 0.881153 17.0863C0.691383 15.6748 0.691394 13.8658 0.691406 11.5574V11.4426C0.691394 9.13423 0.691383 7.32519 0.881153 5.91371C1.07539 4.46897 1.48073 3.32895 2.37554 2.43414C3.27035 1.53933 4.41038 1.13399 5.85511 0.939747C7.2666 0.749977 9.07563 0.749987 11.384 0.75ZM16.2119 1.77592C17.5798 0.408029 19.7976 0.408029 21.1655 1.77592C22.5334 3.1438 22.5334 5.36158 21.1655 6.72947L14.5174 13.3776C14.1461 13.7489 13.9135 13.9815 13.654 14.184C13.3483 14.4224 13.0175 14.6268 12.6676 14.7936C12.3704 14.9352 12.0584 15.0392 11.5602 15.2052L8.65567 16.1734C8.11942 16.3521 7.52821 16.2126 7.12852 15.8129C6.72883 15.4132 6.58926 14.822 6.76801 14.2857L7.73618 11.3812C7.90219 10.8831 8.00619 10.571 8.1478 10.2739C8.31459 9.92388 8.51902 9.59311 8.75745 9.28742C8.9599 9.02787 9.19251 8.79529 9.56385 8.424L16.2119 1.77592ZM20.1048 2.83658C19.3227 2.05448 18.0547 2.05448 17.2726 2.83658L16.896 3.2132C16.9187 3.30906 16.9504 3.42327 16.9946 3.55066C17.1379 3.96372 17.4091 4.50771 17.9214 5.01999C18.4337 5.53227 18.9777 5.80346 19.3907 5.94677C19.5181 5.99097 19.6324 6.02273 19.7282 6.04543L20.1048 5.66881C20.8869 4.88671 20.8869 3.61867 20.1048 2.83658ZM18.5466 7.22709C18.0306 7.00519 17.4296 6.64946 16.8608 6.08065C16.2919 5.51185 15.9362 4.91082 15.7143 4.39486L10.6589 9.45026C10.2424 9.86677 10.0791 10.032 9.94022 10.2099C9.76879 10.4297 9.62181 10.6676 9.50189 10.9192C9.40477 11.123 9.33008 11.3429 9.14381 11.9017L8.71192 13.1974L9.74397 14.2295L11.0397 13.7976C11.5985 13.6113 11.8184 13.5366 12.0222 13.4395C12.2739 13.3196 12.5117 13.1726 12.7315 13.0012C12.9095 12.8624 13.0746 12.699 13.4911 12.2825L18.5466 7.22709Z" fill="white"/>
</svg>
