<svg width="25" height="25" viewBox="0 0 25 25" fill="none" xmlns="http://www.w3.org/2000/svg">
<path d="M12.4414 18.25C12.8556 18.25 13.1914 17.9142 13.1914 17.5V11.5C13.1914 11.0858 12.8556 10.75 12.4414 10.75C12.0272 10.75 11.6914 11.0858 11.6914 11.5V17.5C11.6914 17.9142 12.0272 18.25 12.4414 18.25Z" fill="#1D1C1B"/>
<path d="M12.4414 18.25C12.8556 18.25 13.1914 17.9142 13.1914 17.5V11.5C13.1914 11.0858 12.8556 10.75 12.4414 10.75C12.0272 10.75 11.6914 11.0858 11.6914 11.5V17.5C11.6914 17.9142 12.0272 18.25 12.4414 18.25Z" fill="black" fill-opacity="0.2"/>
<path d="M12.4414 7.5C12.9937 7.5 13.4414 7.94772 13.4414 8.5C13.4414 9.05228 12.9937 9.5 12.4414 9.5C11.8891 9.5 11.4414 9.05228 11.4414 8.5C11.4414 7.94772 11.8891 7.5 12.4414 7.5Z" fill="#1D1C1B"/>
<path d="M12.4414 7.5C12.9937 7.5 13.4414 7.94772 13.4414 8.5C13.4414 9.05228 12.9937 9.5 12.4414 9.5C11.8891 9.5 11.4414 9.05228 11.4414 8.5C11.4414 7.94772 11.8891 7.5 12.4414 7.5Z" fill="black" fill-opacity="0.2"/>
<path fill-rule="evenodd" clip-rule="evenodd" d="M1.69141 12.5C1.69141 6.56294 6.50435 1.75 12.4414 1.75C18.3785 1.75 23.1914 6.56294 23.1914 12.5C23.1914 18.4371 18.3785 23.25 12.4414 23.25C6.50435 23.25 1.69141 18.4371 1.69141 12.5ZM12.4414 3.25C7.33277 3.25 3.19141 7.39137 3.19141 12.5C3.19141 17.6086 7.33277 21.75 12.4414 21.75C17.55 21.75 21.6914 17.6086 21.6914 12.5C21.6914 7.39137 17.55 3.25 12.4414 3.25Z" fill="#1D1C1B"/>
<path fill-rule="evenodd" clip-rule="evenodd" d="M1.69141 12.5C1.69141 6.56294 6.50435 1.75 12.4414 1.75C18.3785 1.75 23.1914 6.56294 23.1914 12.5C23.1914 18.4371 18.3785 23.25 12.4414 23.25C6.50435 23.25 1.69141 18.4371 1.69141 12.5ZM12.4414 3.25C7.33277 3.25 3.19141 7.39137 3.19141 12.5C3.19141 17.6086 7.33277 21.75 12.4414 21.75C17.55 21.75 21.6914 17.6086 21.6914 12.5C21.6914 7.39137 17.55 3.25 12.4414 3.25Z" fill="black" fill-opacity="0.2"/>
</svg>
