<svg width="25" height="25" viewBox="0 0 25 25" fill="none" xmlns="http://www.w3.org/2000/svg">
<path d="M13.4949 2.99392C13.3528 2.83852 13.152 2.75 12.9414 2.75C12.7308 2.75 12.53 2.83852 12.3879 2.99392L8.38789 7.36892C8.10839 7.67462 8.12963 8.14902 8.43533 8.42852C8.74103 8.70802 9.21543 8.68678 9.49493 8.38108L12.1914 5.4318V16.5C12.1914 16.9142 12.5272 17.25 12.9414 17.25C13.3556 17.25 13.6914 16.9142 13.6914 16.5V5.4318L16.3879 8.38108C16.6674 8.68678 17.1418 8.70802 17.4475 8.42852C17.7532 8.14902 17.7744 7.67462 17.4949 7.36892L13.4949 2.99392Z" fill="#B65535"/>
<path d="M4.69141 15.5C4.69141 15.0858 4.35562 14.75 3.94141 14.75C3.52719 14.75 3.19141 15.0858 3.19141 15.5V15.5549C3.19139 16.9225 3.19137 18.0248 3.30793 18.8918C3.42895 19.7919 3.68784 20.5497 4.28976 21.1516C4.89167 21.7536 5.64955 22.0125 6.54966 22.1335C7.41663 22.25 8.51895 22.25 9.88654 22.25H15.9963C17.3639 22.25 18.4662 22.25 19.3332 22.1335C20.2333 22.0125 20.9911 21.7536 21.5931 21.1516C22.195 20.5497 22.4539 19.7919 22.5749 18.8918C22.6914 18.0248 22.6914 16.9225 22.6914 15.5549V15.5C22.6914 15.0858 22.3556 14.75 21.9414 14.75C21.5272 14.75 21.1914 15.0858 21.1914 15.5C21.1914 16.9354 21.1898 17.9365 21.0883 18.6919C20.9896 19.4257 20.8092 19.8142 20.5324 20.091C20.2556 20.3678 19.8671 20.5482 19.1333 20.6469C18.3779 20.7484 17.3768 20.75 15.9414 20.75H9.94141C8.50599 20.75 7.50488 20.7484 6.74953 20.6469C6.01575 20.5482 5.62718 20.3678 5.35042 20.091C5.07365 19.8142 4.89321 19.4257 4.79455 18.6919C4.693 17.9365 4.69141 16.9354 4.69141 15.5Z" fill="#B65535"/>
</svg>
