<svg width="25" height="25" viewBox="0 0 25 25" fill="none" xmlns="http://www.w3.org/2000/svg">
<path fill-rule="evenodd" clip-rule="evenodd" d="M2.04744 6.35797C2.55507 6.14041 3.14295 6.37556 3.36051 6.88319L2.44136 7.27711C3.36051 6.88319 3.36065 6.88352 3.36051 6.88319L3.35999 6.88199C3.35971 6.88134 3.35991 6.88182 3.35999 6.88199L3.3639 6.89086C3.36791 6.89987 3.3748 6.91519 3.38459 6.93639C3.40419 6.97881 3.43537 7.04469 3.47837 7.13068C3.56443 7.3028 3.69734 7.55457 3.87878 7.85938C4.24278 8.47089 4.7958 9.28535 5.54915 10.0967C5.72672 10.2879 5.91464 10.4782 6.11313 10.6652C6.12143 10.6727 6.12964 10.6804 6.13774 10.6883C7.62242 12.0785 9.69367 13.2771 12.4414 13.2771C13.6503 13.2771 14.7197 13.0463 15.6623 12.6753C16.8883 12.1927 17.9159 11.4662 18.757 10.6768C19.7066 9.78549 20.4041 8.82715 20.8646 8.08811C21.094 7.72002 21.2621 7.41029 21.3713 7.1962C21.4258 7.08927 21.4655 7.00654 21.4906 6.95272C21.5031 6.92582 21.512 6.90618 21.5172 6.89439L21.5222 6.88319C21.7399 6.37584 22.3278 6.14047 22.8353 6.35797C23.3429 6.57552 23.5781 7.1634 23.3605 7.67103L22.4414 7.27711C23.3605 7.67103 23.3606 7.6708 23.3605 7.67103L23.3583 7.67605L23.3548 7.68428L23.3433 7.71012C23.3338 7.73145 23.3204 7.76088 23.3032 7.79782C23.2688 7.87168 23.2188 7.97566 23.1529 8.10485C23.0213 8.363 22.8254 8.72319 22.5621 9.14579C22.1594 9.79194 21.5934 10.5933 20.851 11.4014L21.6485 12.1988C22.039 12.5894 22.039 13.2225 21.6485 13.6131C21.2579 14.0036 20.6248 14.0036 20.2343 13.6131L19.3941 12.7729C18.8298 13.2286 18.1984 13.6585 17.4972 14.0293L18.2795 15.2317C18.5808 15.6946 18.4497 16.3141 17.9867 16.6153C17.5238 16.9165 16.9044 16.7854 16.6032 16.3225L15.6177 14.808C14.9387 15.0161 14.2134 15.1636 13.4414 15.2328V16.7771C13.4414 17.3294 12.9936 17.7771 12.4414 17.7771C11.8891 17.7771 11.4414 17.3294 11.4414 16.7771V15.2329C10.6667 15.1637 9.94155 15.0159 9.26475 14.8084L8.27954 16.3225C7.97834 16.7854 7.35889 16.9165 6.89597 16.6153C6.43306 16.3141 6.30197 15.6946 6.60318 15.2317L7.38558 14.0293C6.68546 13.6587 6.05386 13.2289 5.48887 12.7727L4.64847 13.6131C4.25794 14.0036 3.62478 14.0036 3.23425 13.6131C2.84373 13.2225 2.84373 12.5894 3.23425 12.1988L4.03169 11.4014C3.1867 10.4816 2.56912 9.56935 2.16019 8.88235C1.951 8.53091 1.79486 8.2358 1.68951 8.02511C1.6368 7.91969 1.5967 7.83518 1.56893 7.77506C1.55504 7.74499 1.54423 7.721 1.53645 7.70353L1.52707 7.68224L1.52408 7.67536L1.52301 7.67287L1.52258 7.67187C1.52239 7.67144 1.52222 7.67103 2.44136 7.27711L1.52258 7.67187C1.30502 7.16424 1.53981 6.57552 2.04744 6.35797Z" fill="#1D1C1B"/>
<path fill-rule="evenodd" clip-rule="evenodd" d="M2.04744 6.35797C2.55507 6.14041 3.14295 6.37556 3.36051 6.88319L2.44136 7.27711C3.36051 6.88319 3.36065 6.88352 3.36051 6.88319L3.35999 6.88199C3.35971 6.88134 3.35991 6.88182 3.35999 6.88199L3.3639 6.89086C3.36791 6.89987 3.3748 6.91519 3.38459 6.93639C3.40419 6.97881 3.43537 7.04469 3.47837 7.13068C3.56443 7.3028 3.69734 7.55457 3.87878 7.85938C4.24278 8.47089 4.7958 9.28535 5.54915 10.0967C5.72672 10.2879 5.91464 10.4782 6.11313 10.6652C6.12143 10.6727 6.12964 10.6804 6.13774 10.6883C7.62242 12.0785 9.69367 13.2771 12.4414 13.2771C13.6503 13.2771 14.7197 13.0463 15.6623 12.6753C16.8883 12.1927 17.9159 11.4662 18.757 10.6768C19.7066 9.78549 20.4041 8.82715 20.8646 8.08811C21.094 7.72002 21.2621 7.41029 21.3713 7.1962C21.4258 7.08927 21.4655 7.00654 21.4906 6.95272C21.5031 6.92582 21.512 6.90618 21.5172 6.89439L21.5222 6.88319C21.7399 6.37584 22.3278 6.14047 22.8353 6.35797C23.3429 6.57552 23.5781 7.1634 23.3605 7.67103L22.4414 7.27711C23.3605 7.67103 23.3606 7.6708 23.3605 7.67103L23.3583 7.67605L23.3548 7.68428L23.3433 7.71012C23.3338 7.73145 23.3204 7.76088 23.3032 7.79782C23.2688 7.87168 23.2188 7.97566 23.1529 8.10485C23.0213 8.363 22.8254 8.72319 22.5621 9.14579C22.1594 9.79194 21.5934 10.5933 20.851 11.4014L21.6485 12.1988C22.039 12.5894 22.039 13.2225 21.6485 13.6131C21.2579 14.0036 20.6248 14.0036 20.2343 13.6131L19.3941 12.7729C18.8298 13.2286 18.1984 13.6585 17.4972 14.0293L18.2795 15.2317C18.5808 15.6946 18.4497 16.3141 17.9867 16.6153C17.5238 16.9165 16.9044 16.7854 16.6032 16.3225L15.6177 14.808C14.9387 15.0161 14.2134 15.1636 13.4414 15.2328V16.7771C13.4414 17.3294 12.9936 17.7771 12.4414 17.7771C11.8891 17.7771 11.4414 17.3294 11.4414 16.7771V15.2329C10.6667 15.1637 9.94155 15.0159 9.26475 14.8084L8.27954 16.3225C7.97834 16.7854 7.35889 16.9165 6.89597 16.6153C6.43306 16.3141 6.30197 15.6946 6.60318 15.2317L7.38558 14.0293C6.68546 13.6587 6.05386 13.2289 5.48887 12.7727L4.64847 13.6131C4.25794 14.0036 3.62478 14.0036 3.23425 13.6131C2.84373 13.2225 2.84373 12.5894 3.23425 12.1988L4.03169 11.4014C3.1867 10.4816 2.56912 9.56935 2.16019 8.88235C1.951 8.53091 1.79486 8.2358 1.68951 8.02511C1.6368 7.91969 1.5967 7.83518 1.56893 7.77506C1.55504 7.74499 1.54423 7.721 1.53645 7.70353L1.52707 7.68224L1.52408 7.67536L1.52301 7.67287L1.52258 7.67187C1.52239 7.67144 1.52222 7.67103 2.44136 7.27711L1.52258 7.67187C1.30502 7.16424 1.53981 6.57552 2.04744 6.35797Z" fill="black" fill-opacity="0.2"/>
</svg>
