<svg width="25" height="25" viewBox="0 0 25 25" fill="none" xmlns="http://www.w3.org/2000/svg">
<path d="M5.0201 5.57143L5.02611 6.7688L5.87339 5.92272C9.47002 2.33116 15.3233 2.36453 18.9501 5.99133C22.5784 9.61969 22.6102 15.4764 19.014 19.0726C15.4178 22.6689 9.56106 22.637 5.9327 19.0087C3.7833 16.8593 2.89629 13.9284 3.27724 11.1491C3.29599 11.0123 3.42209 10.9166 3.55888 10.9354C3.69567 10.9541 3.79136 11.0802 3.77261 11.217C3.41215 13.8468 4.25128 16.6202 6.28625 18.6551C9.72273 22.0916 15.2628 22.1167 18.6605 18.7191C22.0581 15.3215 22.033 9.78136 18.5965 6.34488C15.1618 2.91016 9.62558 2.88333 6.2275 6.27572L5.37826 7.12353L6.57824 7.12956L7.32594 7.13332C7.46401 7.13402 7.57538 7.24651 7.57468 7.38458C7.57399 7.52264 7.4615 7.63401 7.32343 7.63332L4.77788 7.62052C4.64079 7.61983 4.52983 7.50887 4.52914 7.37178L4.51635 4.82623C4.51565 4.68816 4.62702 4.57567 4.76509 4.57498C4.90316 4.57428 5.01565 4.68565 5.01634 4.82372L5.0201 5.57143ZM12.6913 12.1893V12.3964L12.8377 12.5428L15.1181 14.8231C15.2157 14.9208 15.2157 15.0791 15.1181 15.1767C15.0204 15.2743 14.8621 15.2743 14.7645 15.1767L12.1913 12.6035V8.49992C12.1913 8.36185 12.3032 8.24992 12.4413 8.24992C12.5794 8.24992 12.6913 8.36185 12.6913 8.49992V12.1893Z" stroke="white"/>
</svg>
