<svg width="25" height="25" viewBox="0 0 25 25" fill="none" xmlns="http://www.w3.org/2000/svg">
<path d="M11.6914 18.5C11.6914 18.9142 12.0272 19.25 12.4414 19.25C12.8556 19.25 13.1914 18.9142 13.1914 18.5V15.5C13.1914 15.0858 12.8556 14.75 12.4414 14.75C12.0272 14.75 11.6914 15.0858 11.6914 15.5V18.5Z" fill="white"/>
<path fill-rule="evenodd" clip-rule="evenodd" d="M12.4414 1.75C11.7333 1.75 11.0899 1.95282 10.392 2.29224C9.71725 2.62035 8.93783 3.10409 7.96426 3.70832L5.89769 4.9909C4.97649 5.56261 4.23885 6.0204 3.67031 6.45581C3.08155 6.90669 2.62935 7.36589 2.30272 7.96263C1.97676 8.55812 1.82997 9.19174 1.7596 9.9407C1.69139 10.6665 1.6914 11.5541 1.69141 12.6672V14.2799C1.69139 16.1837 1.69138 17.6866 1.84411 18.8616C2.00078 20.067 2.32997 21.0401 3.07376 21.8094C3.82099 22.5824 4.77186 22.9277 5.94901 23.0914C7.0899 23.25 8.54697 23.25 10.3833 23.25H14.4995C16.3358 23.25 17.7929 23.25 18.9338 23.0914C20.1109 22.9277 21.0618 22.5824 21.809 21.8094C22.5528 21.0401 22.882 20.067 23.0387 18.8616C23.1914 17.6866 23.1914 16.1838 23.1914 14.2799V12.6672C23.1914 11.5541 23.1914 10.6665 23.1232 9.9407C23.0528 9.19174 22.9061 8.55812 22.5801 7.96263C22.2535 7.36589 21.8013 6.90669 21.2125 6.45581C20.644 6.0204 19.9063 5.56262 18.9851 4.99091L16.9185 3.70831C15.945 3.10409 15.1656 2.62034 14.4909 2.29224C13.7929 1.95282 13.1495 1.75 12.4414 1.75ZM8.72093 5.00412C9.73669 4.37371 10.4509 3.93153 11.0479 3.6412C11.6296 3.35833 12.0416 3.25 12.4414 3.25C12.8412 3.25 13.2532 3.35833 13.8349 3.64119C14.4319 3.93153 15.1461 4.37371 16.1619 5.00412L18.1619 6.24537C19.1227 6.84169 19.7973 7.26135 20.3005 7.6467C20.7901 8.02164 21.0718 8.33106 21.2643 8.68285C21.4576 9.03589 21.5704 9.44865 21.6298 10.081C21.6906 10.7286 21.6914 11.5458 21.6914 12.7039V14.225C21.6914 16.1959 21.6899 17.6012 21.5512 18.6683C21.415 19.7163 21.1584 20.3244 20.7306 20.7669C20.3063 21.2058 19.7285 21.4664 18.7272 21.6057C17.7016 21.7483 16.3489 21.75 14.4414 21.75H10.4414C8.53388 21.75 7.18124 21.7483 6.15563 21.6057C5.15426 21.4664 4.57654 21.2058 4.1522 20.7669C3.72442 20.3244 3.46782 19.7163 3.3316 18.6683C3.1929 17.6012 3.19141 16.1959 3.19141 14.225V12.7039C3.19141 11.5458 3.19217 10.7286 3.25302 10.081C3.31244 9.44865 3.42525 9.03589 3.6185 8.68285C3.81106 8.33106 4.09273 8.02164 4.58232 7.6467C5.08551 7.26135 5.7601 6.84169 6.72093 6.24537L8.72093 5.00412Z" fill="white"/>
</svg>
