<svg width="25" height="25" viewBox="0 0 25 25" fill="none" xmlns="http://www.w3.org/2000/svg">
<path fill-rule="evenodd" clip-rule="evenodd" d="M9.64787 3.45926C9.39574 3.53913 9.14674 3.62991 8.90159 3.73146C7.77932 4.19631 6.75961 4.87766 5.90067 5.73661C5.04173 6.59555 4.36038 7.61526 3.89552 8.73752C3.52661 9.62816 3.29978 10.5695 3.22186 11.5273H7.70234C7.73434 10.4314 7.83639 9.35145 8.00598 8.32792C8.21391 7.07293 8.52112 5.91648 8.91662 4.92773C9.13255 4.38791 9.37651 3.89376 9.64787 3.45926ZM12.4414 1.52734C11.0297 1.52734 9.63181 1.8054 8.32756 2.34564C7.02331 2.88588 5.83824 3.67772 4.84001 4.67595C3.84178 5.67417 3.04994 6.85925 2.5097 8.1635C1.96946 9.46775 1.69141 10.8656 1.69141 12.2773C1.69141 13.6891 1.96946 15.0869 2.5097 16.3912C3.04994 17.6954 3.84178 18.8805 4.84001 19.8787C5.83824 20.877 7.02331 21.6688 8.32756 22.209C9.63181 22.7493 11.0297 23.0273 12.4414 23.0273C13.8531 23.0273 15.251 22.7493 16.5553 22.209C17.8595 21.6688 19.0446 20.877 20.0428 19.8787C21.041 18.8805 21.8329 17.6954 22.3731 16.3912C22.9134 15.0869 23.1914 13.6891 23.1914 12.2773C23.1914 10.8656 22.9133 9.46775 22.3731 8.1635C21.8329 6.85925 21.041 5.67418 20.0428 4.67595C19.0446 3.67772 17.8595 2.88588 16.5553 2.34564C15.251 1.8054 13.8531 1.52734 12.4414 1.52734ZM12.4414 3.02734C12.1802 3.02734 11.8426 3.15313 11.4502 3.55954C11.0548 3.96895 10.659 4.6106 10.3093 5.48482C9.96197 6.35324 9.67991 7.40158 9.4858 8.5731C9.33007 9.51303 9.23457 10.5105 9.20302 11.5273L15.6798 11.5273C15.6482 10.5105 15.5527 9.51303 15.397 8.5731C15.2029 7.40158 14.9208 6.35324 14.5735 5.48482C14.2238 4.6106 13.828 3.96895 13.4326 3.55954C13.0402 3.15314 12.7027 3.02734 12.4414 3.02734ZM17.1805 11.5273C17.1485 10.4314 17.0464 9.35145 16.8768 8.32792C16.6689 7.07293 16.3617 5.91649 15.9662 4.92773C15.7503 4.38791 15.5063 3.89376 15.2349 3.45926C15.4871 3.53913 15.7361 3.62991 15.9812 3.73146C17.1035 4.19631 18.1232 4.87767 18.9821 5.73661C19.8411 6.59555 20.5224 7.61526 20.9873 8.73752C21.3562 9.62816 21.583 10.5695 21.661 11.5273H17.1805ZM15.6798 13.0273L9.20302 13.0273C9.23457 14.0442 9.33007 15.0417 9.4858 15.9816C9.6799 17.1531 9.96197 18.2014 10.3093 19.0699C10.659 19.9441 11.0548 20.5857 11.4502 20.9951C11.8426 21.4016 12.1802 21.5273 12.4414 21.5273C12.7027 21.5273 13.0402 21.4016 13.4326 20.9951C13.828 20.5857 14.2238 19.9441 14.5735 19.0699C14.9208 18.2014 15.2029 17.1531 15.397 15.9816C15.5527 15.0417 15.6482 14.0442 15.6798 13.0273ZM15.2349 21.0954C15.5063 20.6609 15.7503 20.1668 15.9662 19.627C16.3617 18.6382 16.6689 17.4818 16.8768 16.2268C17.0464 15.2032 17.1485 14.1232 17.1805 13.0273H21.661C21.583 13.9851 21.3562 14.9265 20.9873 15.8172C20.5224 16.9394 19.8411 17.9591 18.9821 18.8181C18.1232 19.677 17.1035 20.3584 15.9812 20.8232C15.7361 20.9248 15.4871 21.0156 15.2349 21.0954ZM9.64786 21.0954C9.37651 20.6609 9.13255 20.1668 8.91662 19.627C8.52112 18.6382 8.21391 17.4818 8.00598 16.2268C7.83639 15.2032 7.73434 14.1232 7.70234 13.0273H3.22186C3.29978 13.9851 3.52661 14.9265 3.89552 15.8172C4.36038 16.9394 5.04173 17.9591 5.90067 18.8181C6.75961 19.677 7.77932 20.3584 8.90158 20.8232C9.14674 20.9248 9.39574 21.0156 9.64786 21.0954Z" fill="#B65535"/>
</svg>
