<svg width="21" height="21" viewBox="0 0 21 21" fill="none" xmlns="http://www.w3.org/2000/svg">
<path fill-rule="evenodd" clip-rule="evenodd" d="M10.4414 20.5C4.91856 20.5 0.441406 16.0228 0.441406 10.5C0.441406 4.97715 4.91856 0.5 10.4414 0.5C15.9643 0.5 20.4414 4.97715 20.4414 10.5C20.4414 16.0228 15.9643 20.5 10.4414 20.5ZM9.97174 6.96967C9.67884 6.67678 9.20397 6.67678 8.91108 6.96967L5.91108 9.96967C5.61818 10.2626 5.61818 10.7374 5.91108 11.0303L8.91108 14.0303C9.20397 14.3232 9.67884 14.3232 9.97174 14.0303C10.2646 13.7374 10.2646 13.2626 9.97174 12.9697L8.25207 11.25H14.4414C14.8556 11.25 15.1914 10.9142 15.1914 10.5C15.1914 10.0858 14.8556 9.75 14.4414 9.75H8.25207L9.97174 8.03033C10.2646 7.73744 10.2646 7.26256 9.97174 6.96967Z" fill="#847F7A"/>
</svg>
