<svg width="25" height="25" viewBox="0 0 25 25" fill="none" xmlns="http://www.w3.org/2000/svg">
<path d="M4.19141 10.6433C4.19141 6.01179 7.8811 2.25 12.4414 2.25C17.0017 2.25 20.6914 6.01179 20.6914 10.6433C20.6914 12.919 20.0412 15.3771 18.8865 17.5032C17.7322 19.6286 16.0631 21.4414 14.0102 22.4009C13.0144 22.8664 11.8684 22.8664 10.8726 22.4009C8.81971 21.4414 7.1506 19.6286 5.99634 17.5032C4.84163 15.3771 4.19141 12.919 4.19141 10.6433ZM12.4414 2.75C8.16562 2.75 4.69141 6.27948 4.69141 10.6433C4.69141 12.8297 5.31783 15.2062 6.43573 17.2646C7.55414 19.3239 9.1536 21.0455 11.0843 21.948C11.9459 22.3507 12.9369 22.3507 13.7985 21.948C15.7292 21.0455 17.3287 19.3239 18.4471 17.2646C19.565 15.2062 20.1914 12.8297 20.1914 10.6433C20.1914 6.27948 16.7172 2.75 12.4414 2.75ZM12.4414 7.75C10.9226 7.75 9.69141 8.98122 9.69141 10.5C9.69141 12.0188 10.9226 13.25 12.4414 13.25C13.9602 13.25 15.1914 12.0188 15.1914 10.5C15.1914 8.98122 13.9602 7.75 12.4414 7.75ZM9.19141 10.5C9.19141 8.70507 10.6465 7.25 12.4414 7.25C14.2363 7.25 15.6914 8.70507 15.6914 10.5C15.6914 12.2949 14.2363 13.75 12.4414 13.75C10.6465 13.75 9.19141 12.2949 9.19141 10.5Z" stroke="white"/>
</svg>
