<svg width="98" height="98" viewBox="0 0 98 98" fill="none" xmlns="http://www.w3.org/2000/svg">
<g clip-path="url(#clip0_767_19753)">
<path d="M37.839 23.4631C34.8056 25.801 32.5514 28.7314 31.0701 32.2543C30.1491 34.457 29.621 36.724 30.2135 39.268C30.381 39.0362 30.4969 38.9202 30.5678 38.785C31.7528 36.3698 33.2534 34.1543 34.9537 32.0804C36.7957 29.8263 38.876 27.8426 41.3749 26.3227C41.6003 26.1874 41.8708 26.1166 42.2443 25.962C39.6359 30.67 40.4281 34.7854 42.3281 37.3165C43.3199 32.3703 45.9863 28.4029 49.3482 24.6997C52.6393 28.4222 55.4022 32.3123 56.3554 37.4325C57.6435 35.5519 58.0879 33.6777 58.1265 31.7069C58.1652 29.6975 57.4503 27.8619 56.3425 25.8847C58.1394 26.6704 59.376 27.6945 60.5675 28.77C63.4271 31.3655 65.7263 34.4055 67.5812 37.7867C67.813 38.2118 68.0706 38.624 68.4249 39.2294C68.5537 38.8301 68.631 38.6819 68.6438 38.5338C68.7662 36.782 68.6503 35.0624 68.0513 33.3879C66.5958 29.3175 64.1162 25.9942 60.7092 23.3472C60.5095 23.1926 60.3228 23.0122 60.1295 22.8448C61.7976 23.0251 63.3884 23.3085 64.9019 23.8173C69.0045 25.2085 72.2956 27.8619 75.387 30.8245C74.8911 28.3192 73.7254 26.2067 72.0509 24.3519C69.4747 21.5116 66.19 19.9208 62.564 18.8968C61.8556 18.6971 61.1471 18.5039 60.4387 18.3043C62.5898 18.1046 64.7345 17.8277 66.8147 18.3815C68.8821 18.929 70.8916 19.6696 73.2101 20.4103C68.5279 15.7152 63.3369 13.1132 56.6388 14.0407C57.5276 12.8363 58.7899 12.6366 59.975 12.057C57.0059 11.1296 54.2945 11.5289 51.6732 12.978C51.1451 11.4967 50.823 9.9574 49.3675 9.15234C47.8218 10.0347 47.5126 11.574 47.0232 12.978C44.3568 11.5096 41.6905 11.1618 38.715 12.0699C39.9322 12.6688 41.201 12.8492 42.1026 14.0535C35.192 13.0939 29.9173 15.8698 25.4089 20.5906C29.4471 18.7293 33.6012 17.5185 38.2319 18.2592C37.8326 18.4073 37.5363 18.5554 37.2208 18.6263C35.4368 19.0449 33.7107 19.6181 32.0491 20.4039C28.3265 22.1621 25.5249 24.8091 23.9276 28.6477C23.6442 29.3239 23.3415 30.0002 23.2578 30.9534C27.6502 26.606 32.4097 23.3536 38.76 22.7289C38.3543 23.038 38.1031 23.257 37.839 23.4631Z" fill="#B65434"/>
<path d="M58.3842 53.6238C59.389 53.9974 60.2262 53.6431 61.0377 53.1537C61.6946 52.7608 62.358 52.3679 62.9505 51.8849C65.0566 50.1653 66.5121 48.0657 66.7826 45.2383C65.9067 44.8454 65.1532 45.1675 64.4318 45.4766C61.8235 46.5973 59.4856 48.1108 57.5599 50.2168C57.2765 50.5259 56.9609 50.8351 56.6067 51.0476C56.188 51.3052 55.7179 51.389 55.4087 50.7771C57.1863 44.5556 58.9703 38.3148 60.7543 32.074C60.6964 32.0547 60.6384 32.0353 60.5804 32.0225C58.0042 37.7287 55.4281 43.435 52.839 49.1734C52.0726 48.8579 51.435 48.626 50.8296 48.3297C49.9215 47.8725 49.0327 47.8982 48.1246 48.2975C47.429 48.6002 46.7334 48.8901 45.8962 49.2443C45.2263 47.7308 44.6274 46.3718 44.0155 45.0193C43.3844 43.6282 42.7403 42.2435 42.1092 40.8524C41.4973 39.4999 40.9048 38.1409 40.2929 36.7884C39.6811 35.4488 39.0564 34.1092 38.4381 32.7696C38.3544 32.8018 38.2706 32.8404 38.1805 32.8726C39.913 38.9266 41.6454 44.9807 43.3779 51.0476C42.6051 51.492 42.1864 51.0283 41.7871 50.5904C40.4604 49.1348 38.9598 47.8854 37.2659 46.8806C35.9521 46.1013 34.6189 45.3478 33.0732 45.0773C32.6996 45.0129 32.4098 45.0387 32.1973 45.3671C32.603 49.328 35.7653 52.2649 38.8632 53.5787C39.2947 53.7591 39.8485 53.7204 40.338 53.6689C40.8404 53.6174 41.3299 53.4306 41.8902 53.8814C41.8258 54.4546 41.7549 55.0729 41.6905 55.6976C41.5166 57.4752 41.2333 59.2721 42.4441 60.8436C43.3779 62.0544 43.803 63.4713 44.1121 64.9333C44.3311 65.9702 44.4599 67.0264 44.6853 68.0569C44.988 69.4159 45.1297 70.8328 45.864 72.0629C46.669 73.4154 47.693 74.3042 49.432 74.2784C51.1387 74.2527 52.2593 73.4798 53 72.0629C53.3478 71.3931 53.6247 70.6589 53.7857 69.9247C54.1142 68.482 54.3332 67.0136 54.6101 65.558C54.9128 63.9672 55.2864 62.3829 56.2589 61.0561C57.3087 59.6135 57.547 58.0806 57.2378 56.3546C57.0833 55.5238 56.7162 54.6479 57.2056 53.6238C57.5727 53.6045 58.0236 53.4886 58.3842 53.6238ZM51.9051 65.7705C50.617 64.5662 49.2516 64.4245 47.7446 65.3906C47.152 65.7705 46.6304 66.2407 45.9284 66.7817C46.5917 64.6499 47.21 62.6856 47.8283 60.7148C48.0151 60.1094 48.1954 59.4975 48.3886 58.8986C48.5432 58.4348 48.8008 58.0033 49.3289 57.9776C49.8699 57.9454 50.1598 58.3511 50.3336 58.8084C50.6814 59.7229 51.0292 60.6311 51.3255 61.5585C51.7377 62.8466 52.1048 64.154 52.4719 65.4614C52.5363 65.6933 52.5298 65.9444 52.5814 66.376C52.2658 66.0861 52.079 65.9316 51.9051 65.7705Z" fill="#B65434"/>
<path d="M75.6703 69.448C73.5772 69.7893 71.4711 70.0856 69.3909 70.5042C63.0148 71.7859 56.7546 73.5184 50.6877 75.882C49.7474 76.2491 48.9617 76.2878 48.0214 75.9142C40.5311 72.9516 32.751 71.0388 24.8163 69.712C23.8309 69.5446 22.8327 69.4802 21.8408 69.3643C31.0958 71.4123 42.3859 76.5647 44.4855 78.5033C41.4714 79.8944 38.5474 81.4337 35.7522 83.192C36.6604 84.7956 37.9485 86.2254 39.185 87.0305C40.164 87.6681 40.2799 87.6294 41.2009 86.9532C43.6289 85.1692 46.0828 83.4109 48.5366 81.6527C48.8007 81.4595 49.1098 81.3242 49.3867 81.1761C49.6637 81.3435 49.8891 81.4595 50.0952 81.6076C52.607 83.4238 55.1252 85.24 57.6305 87.0691C58.3583 87.6037 58.5451 87.6552 59.3244 87.1593C59.6851 86.9274 60.0328 86.6827 60.3484 86.3993C61.3725 85.5041 62.2162 84.4672 62.8538 83.3337C62.725 83.1469 62.6992 83.0438 62.6348 83.0116C59.8461 81.4724 57.0573 79.9331 54.0883 78.2972C61.2758 74.2783 68.7275 71.2642 76.6879 69.4802C76.3337 69.4093 75.9988 69.39 75.6703 69.448Z" fill="#B65434"/>
<path d="M70.2281 56.2451C69.3394 55.337 68.9529 55.3692 67.9869 56.2065C67.4781 56.6445 66.9435 57.1211 66.3317 57.3529C64.3995 58.0807 62.667 57.6878 61.1922 56.2065C60.5159 55.5303 59.8075 55.395 59.421 55.8072C59.0668 56.1872 59.1698 56.8828 59.7753 57.5204C61.3789 59.1949 63.3368 59.9098 65.6618 59.5491C66.9499 59.3495 68.0513 58.7312 69.0495 57.9776C72.1345 60.2576 75.1036 60.1545 78.0404 58.0163C78.4011 58.2288 78.7618 58.4542 79.1289 58.6668C80.2173 59.2979 81.4152 59.62 82.6583 59.562C84.3328 59.4847 85.7626 58.7183 87.012 57.6427C87.3534 57.3465 87.5981 56.9278 87.8557 56.5478C88.094 56.2065 87.9523 55.8394 87.6818 55.6462C87.4886 55.5109 87.0958 55.4852 86.8832 55.5947C86.4002 55.8394 85.9429 56.1679 85.5243 56.5221C83.7789 58.0034 81.2092 58.0098 79.5797 56.4899C79.335 56.258 79.0645 56.0391 78.7811 55.8587C78.1886 55.4787 77.7055 55.5174 77.1581 55.9746C76.9327 56.1614 76.733 56.3933 76.5205 56.5994C75.7476 57.3336 74.8395 57.6878 73.7575 57.72C72.3342 57.7651 71.2007 57.2434 70.2281 56.2451Z" fill="#B65434"/>
<path d="M15.0717 59.3304C15.8317 59.5365 16.611 59.6331 17.4483 59.5043C18.7879 59.2982 19.915 58.68 21.0098 58.0101C23.4765 59.8779 26.4778 60.5219 29.9943 57.9973C30.3421 58.2291 30.6899 58.4739 31.0505 58.6993C33.6139 60.2836 37.0724 59.8392 39.114 57.6688C39.3459 57.4241 39.6164 57.1471 39.6872 56.8444C39.7645 56.5095 39.7452 56.0394 39.5584 55.7946C39.2686 55.4275 38.7598 55.5177 38.3862 55.756C38.0707 55.9556 37.8195 56.2712 37.5361 56.5224C35.7456 58.1132 33.1759 58.1196 31.379 56.5417C31.1278 56.3163 30.9024 56.0522 30.6319 55.8526C30.1102 55.4726 29.6401 55.4984 29.1377 55.9234C28.9123 56.1167 28.7191 56.3485 28.5001 56.5482C27.6564 57.321 26.6968 57.7332 25.5053 57.7397C24.127 57.7397 23.0257 57.2373 22.1305 56.239C21.699 55.756 21.2095 55.4468 20.5654 55.7045C20.2627 55.8268 20.0116 56.0844 19.7604 56.3099C17.8411 58.0488 15.2521 58.1068 13.307 56.3549C12.9335 56.02 12.4827 55.756 12.0254 55.5434C11.5552 55.3309 11.2074 55.595 11.1624 56.1166C11.1173 56.6319 11.3749 57.0119 11.7162 57.3468C12.663 58.2807 13.7836 58.9762 15.0717 59.3304Z" fill="#B65434"/>
<path d="M87.6819 62.3316C87.3019 62.0997 86.7416 62.2092 86.2972 62.6214C86.046 62.8533 85.827 63.1173 85.5694 63.3363C83.618 64.9851 81.3187 64.9271 79.4703 63.2011C78.1049 61.9258 78.1049 61.9258 76.7653 63.1689C74.7945 65.0044 72.3214 64.9851 70.3828 63.1173C70.2024 62.937 70.0414 62.7309 69.8547 62.5634C69.3201 62.0997 68.8177 62.0997 68.2767 62.5828C67.9934 62.8339 67.7486 63.1366 67.4588 63.3878C66.1643 64.4891 64.7152 64.8885 63.0793 64.2637C62.2291 63.9353 61.5658 63.3492 60.9604 62.6729C60.5289 62.1835 59.8655 62.0997 59.4791 62.4024C59.0991 62.6987 59.1055 63.3814 59.4855 63.9031C59.537 63.9739 59.595 64.0319 59.653 64.0963C61.862 66.6274 65.4558 67.1748 68.2896 65.204C68.5601 65.0173 68.8177 64.8112 69.0689 64.6308C72.2183 67.1555 75.5158 66.8077 78.0405 64.6115C78.3046 64.779 78.5364 64.8949 78.7232 65.0559C80.8163 66.8464 84.4681 66.9559 86.9155 64.7146C87.2246 64.4312 87.4951 64.0834 87.7077 63.7227C88.0619 63.1173 88.0168 62.5377 87.6819 62.3316Z" fill="#B65434"/>
<path d="M29.9686 64.6048C30.4066 64.9139 30.7801 65.1973 31.173 65.442C33.8973 67.1101 37.4267 66.524 39.6229 63.7933C40.0286 63.2845 39.9964 62.7821 39.5971 62.4343C39.2365 62.1123 38.6117 62.1445 38.2124 62.518C38.0579 62.6597 37.9548 62.8529 37.8002 63.0075C35.8423 64.9461 33.3885 65.0363 31.4242 63.2458C29.9493 61.8998 29.9557 61.9062 28.5066 63.2329C27.1799 64.4437 25.6342 64.959 23.9403 64.199C23.1546 63.8512 22.4977 63.1943 21.8279 62.6211C21.2418 62.1187 20.7394 62.0672 20.1598 62.5824C20.0052 62.7241 19.87 62.8916 19.7154 63.0397C17.7704 64.9461 15.3809 65.017 13.3329 63.2201C13.1461 63.0526 12.9658 62.8594 12.8048 62.6662C12.3926 62.1767 11.8967 62.093 11.259 62.3699C10.995 63.1879 11.2848 63.7546 11.7743 64.2892C13.8481 66.5949 17.2551 67.0521 19.8957 65.3583C20.2822 65.1136 20.6557 64.8495 21.0164 64.6048C22.356 65.6996 23.7729 66.3566 25.4861 66.363C27.2379 66.3759 28.6548 65.6224 29.9686 64.6048Z" fill="#B65434"/>
<path d="M49.4382 0.277344C22.6973 0.277344 0.941406 22.0333 0.941406 48.7806C0.941406 75.5279 22.6973 97.2838 49.4382 97.2838C76.179 97.2838 97.935 75.5279 97.935 48.7806C97.9414 22.0333 76.1855 0.277344 49.4382 0.277344ZM49.4382 94.4178C24.2752 94.4178 3.80098 73.9435 3.80098 48.7806C3.80098 23.6176 24.2752 3.13691 49.4382 3.13691C74.6011 3.13691 95.0754 23.6112 95.0754 48.7741C95.0754 73.9371 74.6076 94.4178 49.4382 94.4178Z" fill="#B65434"/>
<path d="M49.4386 4.51562C25.0357 4.51562 5.17969 24.3716 5.17969 48.7746C5.17969 73.1775 25.0357 93.0335 49.4386 93.0335C73.8416 93.0335 93.6976 73.1775 93.6976 48.7746C93.6976 24.3716 73.848 4.51562 49.4386 4.51562ZM49.4386 92.0095C25.6024 92.0095 6.21016 72.6172 6.21016 48.781C6.21016 24.9448 25.6024 5.5461 49.4386 5.5461C73.2748 5.5461 92.6671 24.9384 92.6671 48.7746C92.6671 72.6108 73.2813 92.0095 49.4386 92.0095Z" fill="#B65434"/>
</g>
<defs>
<clipPath id="clip0_767_19753">
<rect width="97" height="97" fill="white" transform="translate(0.941406 0.277344)"/>
</clipPath>
</defs>
</svg>
