<svg width="63" height="63" viewBox="0 0 63 63" fill="none" xmlns="http://www.w3.org/2000/svg">
<g clip-path="url(#clip0_969_9155)">
<path d="M24.025 15.3199C22.0861 16.8142 20.6453 18.6873 19.6985 20.9391C19.1098 22.3469 18.7723 23.796 19.151 25.422C19.258 25.2738 19.3321 25.1997 19.3774 25.1133C20.1349 23.5696 21.094 22.1535 22.1808 20.8279C23.3582 19.3871 24.6878 18.1192 26.2851 17.1477C26.4291 17.0612 26.602 17.016 26.8408 16.9172C25.1736 19.9264 25.6799 22.5569 26.8943 24.1747C27.5283 21.0132 29.2325 18.4773 31.3814 16.1103C33.485 18.4897 35.251 20.9761 35.8602 24.2488C36.6836 23.0468 36.9676 21.8488 36.9923 20.5892C37.017 19.3048 36.5601 18.1316 35.852 16.8678C37.0005 17.37 37.7909 18.0245 38.5525 18.712C40.3803 20.371 41.8499 22.314 43.0355 24.4752C43.1837 24.7469 43.3483 25.0104 43.5747 25.3973C43.6571 25.1421 43.7065 25.0474 43.7147 24.9527C43.7929 23.833 43.7188 22.7339 43.336 21.6636C42.4056 19.0619 40.8207 16.9377 38.6431 15.2458C38.5155 15.147 38.3961 15.0318 38.2726 14.9247C39.3388 15.04 40.3556 15.2211 41.323 15.5463C43.9452 16.4355 46.0488 18.1316 48.0248 20.0252C47.7078 18.4238 46.9627 17.0736 45.8924 15.888C44.2457 14.0726 42.1463 13.0558 39.8286 12.4013C39.3758 12.2736 38.923 12.1501 38.4702 12.0225C39.8451 11.8949 41.2159 11.7179 42.5456 12.0719C43.867 12.4218 45.1514 12.8952 46.6334 13.3687C43.6406 10.3677 40.3226 8.70456 36.0414 9.29735C36.6095 8.52754 37.4163 8.39993 38.1738 8.02944C36.276 7.43665 34.5429 7.69187 32.8675 8.61811C32.5299 7.67129 32.3241 6.68743 31.3937 6.17285C30.4058 6.73682 30.2082 7.72069 29.8953 8.61811C28.191 7.67952 26.4868 7.45723 24.5849 8.03767C25.3629 8.42051 26.1739 8.53578 26.7502 9.30558C22.3331 8.69221 18.9616 10.4665 16.08 13.4839C18.6611 12.2942 21.3163 11.5203 24.2762 11.9937C24.0209 12.0884 23.8316 12.1831 23.6299 12.2284C22.4896 12.4959 21.3863 12.8623 20.3242 13.3645C17.9448 14.4884 16.1541 16.1803 15.1332 18.6338C14.9521 19.066 14.7586 19.4983 14.7051 20.1075C17.5126 17.3288 20.5548 15.2499 24.6137 14.8506C24.3544 15.0482 24.1938 15.1882 24.025 15.3199Z" fill="#B65434"/>
<path d="M37.158 34.5976C37.8002 34.8363 38.3353 34.6099 38.854 34.2971C39.2739 34.046 39.6979 33.7948 40.0766 33.4861C41.4228 32.387 42.3531 31.045 42.526 29.2378C41.9662 28.9867 41.4845 29.1925 41.0235 29.3901C39.3562 30.1064 37.8619 31.0738 36.6311 32.4199C36.4499 32.6175 36.2482 32.8151 36.0218 32.9509C35.7542 33.1156 35.4537 33.1691 35.2561 32.778C36.3923 28.8014 37.5326 24.8124 38.6729 20.8235C38.6358 20.8111 38.5988 20.7988 38.5617 20.7905C36.9151 24.4378 35.2685 28.0851 33.6136 31.753C33.1237 31.5513 32.7162 31.4031 32.3292 31.2137C31.7488 30.9215 31.1807 30.9379 30.6003 31.1932C30.1557 31.3866 29.7111 31.5719 29.1759 31.7983C28.7478 30.8309 28.3649 29.9623 27.9739 29.0978C27.5704 28.2086 27.1588 27.3236 26.7554 26.4344C26.3643 25.5699 25.9856 24.7013 25.5945 23.8368C25.2034 22.9806 24.8041 22.1243 24.4089 21.2681C24.3554 21.2886 24.3019 21.3133 24.2442 21.3339C25.3516 25.2035 26.459 29.0731 27.5663 32.9509C27.0723 33.235 26.8048 32.9386 26.5495 32.6587C25.7015 31.7283 24.7423 30.9297 23.6597 30.2875C22.8199 29.7894 21.9678 29.3078 20.9798 29.1349C20.741 29.0937 20.5558 29.1102 20.4199 29.3201C20.6793 31.8518 22.7005 33.729 24.6806 34.5688C24.9564 34.684 25.3104 34.6593 25.6233 34.6264C25.9444 34.5935 26.2573 34.4741 26.6154 34.7622C26.5742 35.1286 26.5289 35.5238 26.4878 35.9231C26.3766 37.0593 26.1955 38.2078 26.9694 39.2123C27.5663 39.9862 27.838 40.8918 28.0356 41.8263C28.1756 42.4891 28.2579 43.1642 28.402 43.8229C28.5955 44.6915 28.686 45.5971 29.1553 46.3834C29.6699 47.2479 30.3244 47.816 31.4359 47.7995C32.5268 47.783 33.2431 47.289 33.7165 46.3834C33.9388 45.9553 34.1158 45.486 34.2187 45.0167C34.4287 44.0946 34.5687 43.156 34.7457 42.2256C34.9391 41.2088 35.1779 40.1961 35.7995 39.3481C36.4705 38.426 36.6228 37.4463 36.4252 36.343C36.3264 35.812 36.0918 35.2521 36.4046 34.5976C36.6393 34.5852 36.9275 34.5111 37.158 34.5976ZM33.0167 42.3615C32.1934 41.5917 31.3207 41.5011 30.3574 42.1186C29.9786 42.3615 29.6452 42.662 29.1965 43.0078C29.6205 41.6452 30.0157 40.3896 30.4109 39.1299C30.5303 38.743 30.6455 38.3519 30.769 37.9691C30.8678 37.6727 31.0325 37.3969 31.3701 37.3804C31.7158 37.3598 31.9011 37.6192 32.0122 37.9114C32.2345 38.496 32.4568 39.0764 32.6462 39.6692C32.9097 40.4925 33.1443 41.3282 33.379 42.1639C33.4201 42.3121 33.416 42.4726 33.4489 42.7484C33.2472 42.5632 33.1278 42.4644 33.0167 42.3615Z" fill="#B65434"/>
<path d="M48.2053 44.7122C46.8674 44.9304 45.5213 45.1198 44.1916 45.3873C40.1162 46.2065 36.1149 47.3139 32.237 48.8247C31.636 49.0593 31.1338 49.084 30.5328 48.8453C25.7452 46.9516 20.7723 45.729 15.7007 44.881C15.0709 44.774 14.4328 44.7328 13.7988 44.6587C19.7144 45.9678 26.9308 49.261 28.2728 50.5001C26.3462 51.3893 24.4773 52.3732 22.6907 53.497C23.2711 54.5221 24.0944 55.4359 24.8848 55.9505C25.5105 56.358 25.5846 56.3334 26.1733 55.9011C27.7253 54.7608 29.2937 53.637 30.8621 52.5132C31.0309 52.3897 31.2285 52.3032 31.4055 52.2085C31.5825 52.3156 31.7266 52.3897 31.8583 52.4843C33.4638 53.6452 35.0734 54.8061 36.6747 55.9752C37.1399 56.3169 37.2593 56.3498 37.7574 56.0328C37.9879 55.8846 38.2102 55.7282 38.4119 55.5471C39.0665 54.9749 39.6057 54.3121 40.0133 53.5876C39.931 53.4682 39.9145 53.4023 39.8733 53.3818C38.0908 52.3979 36.3084 51.414 34.4106 50.3684C39.0047 47.7997 43.7676 45.8731 48.8557 44.7328C48.6293 44.6875 48.4153 44.6752 48.2053 44.7122Z" fill="#B65434"/>
<path d="M44.727 36.2734C44.1589 35.693 43.9119 35.7135 43.2944 36.2487C42.9692 36.5286 42.6275 36.8332 42.2365 36.9814C41.0015 37.4466 39.8941 37.1955 38.9514 36.2487C38.5192 35.8164 38.0664 35.73 37.8194 35.9935C37.593 36.2363 37.6588 36.6809 38.0458 37.0885C39.0708 38.1588 40.3223 38.6157 41.8083 38.3852C42.6317 38.2576 43.3356 37.8624 43.9737 37.3808C45.9455 38.838 47.8433 38.7722 49.7204 37.4055C49.951 37.5413 50.1815 37.6854 50.4161 37.8212C51.1118 38.2247 51.8775 38.4305 52.672 38.3934C53.7423 38.344 54.6562 37.8542 55.4548 37.1667C55.673 36.9773 55.8295 36.7098 55.9941 36.4669C56.1464 36.2487 56.0559 36.014 55.883 35.8905C55.7595 35.8041 55.5084 35.7876 55.3725 35.8576C55.0638 36.014 54.7715 36.224 54.5039 36.4504C53.3883 37.3972 51.7458 37.4013 50.7043 36.4298C50.5479 36.2816 50.375 36.1417 50.1938 36.0264C49.8151 35.7835 49.5064 35.8082 49.1565 36.1005C49.0124 36.2199 48.8848 36.3681 48.7489 36.4998C48.2549 36.9691 47.6745 37.1955 46.9829 37.2161C46.0731 37.2449 45.3486 36.9115 44.727 36.2734Z" fill="#B65434"/>
<path d="M9.47275 38.245C9.95851 38.3768 10.4566 38.4385 10.9918 38.3562C11.848 38.2244 12.5684 37.8292 13.2683 37.4011C14.8449 38.5949 16.7632 39.0066 19.0109 37.3929C19.2332 37.5411 19.4555 37.6975 19.686 37.8416C21.3244 38.8543 23.535 38.5702 24.84 37.1829C24.9882 37.0265 25.1611 36.8495 25.2064 36.656C25.2558 36.442 25.2434 36.1414 25.124 35.985C24.9388 35.7504 24.6136 35.808 24.3748 35.9603C24.1731 36.0879 24.0126 36.2896 23.8314 36.4502C22.687 37.467 21.0445 37.4711 19.896 36.4625C19.7354 36.3185 19.5913 36.1497 19.4184 36.0221C19.085 35.7792 18.7845 35.7956 18.4634 36.0673C18.3193 36.1908 18.1958 36.339 18.0559 36.4667C17.5166 36.9606 16.9032 37.2241 16.1416 37.2282C15.2607 37.2282 14.5567 36.9071 13.9845 36.2691C13.7087 35.9603 13.3959 35.7627 12.9842 35.9274C12.7907 36.0056 12.6302 36.1703 12.4696 36.3143C11.2429 37.4258 9.58802 37.4629 8.34481 36.3432C8.10605 36.1291 7.81788 35.9603 7.52561 35.8245C7.22509 35.6886 7.0028 35.8574 6.97398 36.1908C6.94517 36.5202 7.10983 36.763 7.32801 36.9771C7.93315 37.574 8.64944 38.0186 9.47275 38.245Z" fill="#B65434"/>
<path d="M55.8844 40.1634C55.6415 40.0152 55.2834 40.0852 54.9993 40.3487C54.8388 40.4969 54.6988 40.6656 54.5342 40.8056C53.2868 41.8594 51.8172 41.8224 50.6358 40.7191C49.763 39.9041 49.763 39.9041 48.9068 40.6986C47.6471 41.8718 46.0663 41.8594 44.8272 40.6656C44.712 40.5504 44.6091 40.4186 44.4897 40.3116C44.148 40.0152 43.8269 40.0152 43.4811 40.324C43.3 40.4845 43.1436 40.678 42.9583 40.8385C42.1309 41.5425 41.2046 41.7977 40.159 41.3984C39.6156 41.1884 39.1916 40.8138 38.8047 40.3816C38.5289 40.0687 38.1048 40.0152 37.8578 40.2087C37.615 40.3981 37.6191 40.8344 37.862 41.1679C37.8949 41.2131 37.9319 41.2502 37.969 41.2914C39.381 42.9092 41.678 43.2591 43.4893 41.9994C43.6622 41.88 43.8269 41.7483 43.9875 41.633C46.0005 43.2467 48.1082 43.0244 49.7219 41.6207C49.8906 41.7277 50.0388 41.8018 50.1582 41.9047C51.4961 43.0491 53.8302 43.1191 55.3945 41.6865C55.5921 41.5054 55.765 41.2831 55.9009 41.0526C56.1273 40.6656 56.0985 40.2951 55.8844 40.1634Z" fill="#B65434"/>
<path d="M18.9952 41.6167C19.2751 41.8143 19.5139 41.9954 19.765 42.1519C21.5063 43.2181 23.7622 42.8435 25.166 41.098C25.4253 40.7728 25.4047 40.4517 25.1495 40.2294C24.919 40.0236 24.5197 40.0442 24.2644 40.2829C24.1656 40.3735 24.0998 40.497 24.001 40.5958C22.7495 41.8349 21.1811 41.8925 19.9255 40.7481C18.9828 39.8877 18.987 39.8919 18.0607 40.7399C17.2127 41.5138 16.2247 41.8431 15.1421 41.3574C14.6398 41.1351 14.2199 40.7152 13.7918 40.3488C13.4172 40.0277 13.0961 39.9948 12.7256 40.3241C12.6268 40.4147 12.5404 40.5217 12.4416 40.6164C11.1984 41.8349 9.67111 41.8802 8.36203 40.7316C8.24265 40.6246 8.12738 40.5011 8.02447 40.3776C7.76101 40.0648 7.44403 40.0112 7.03649 40.1883C6.86771 40.7111 7.05295 41.0733 7.36581 41.415C8.69136 42.8887 10.869 43.181 12.5568 42.0984C12.8038 41.9419 13.0426 41.7731 13.2731 41.6167C14.1294 42.3165 15.035 42.7364 16.13 42.7405C17.2498 42.7488 18.1554 42.2671 18.9952 41.6167Z" fill="#B65434"/>
<path d="M31.4393 0.5C14.3473 0.5 0.441406 14.4058 0.441406 31.5021C0.441406 48.5983 14.3473 62.5041 31.4393 62.5041C48.5314 62.5041 62.4373 48.5983 62.4373 31.5021C62.4414 14.4058 48.5356 0.5 31.4393 0.5ZM31.4393 60.6722C15.3558 60.6722 2.26917 47.5856 2.26917 31.5021C2.26917 15.4185 15.3558 2.32777 31.4393 2.32777C47.5229 2.32777 60.6095 15.4144 60.6095 31.4979C60.6095 47.5815 47.527 60.6722 31.4393 60.6722Z" fill="#B65434"/>
<path d="M31.4396 3.2085C15.8418 3.2085 3.15039 15.9 3.15039 31.4977C3.15039 47.0955 15.8418 59.7869 31.4396 59.7869C47.0374 59.7869 59.7288 47.0955 59.7288 31.4977C59.7288 15.9 47.0415 3.2085 31.4396 3.2085ZM31.4396 59.1324C16.2041 59.1324 3.80905 46.7373 3.80905 31.5018C3.80905 16.2663 16.2041 3.86715 31.4396 3.86715C46.6751 3.86715 59.0702 16.2622 59.0702 31.4977C59.0702 46.7332 46.6792 59.1324 31.4396 59.1324Z" fill="#B65434"/>
</g>
<defs>
<clipPath id="clip0_969_9155">
<rect width="62" height="62" fill="white" transform="translate(0.441406 0.5)"/>
</clipPath>
</defs>
</svg>
