<svg width="25" height="25" viewBox="0 0 25 25" fill="none" xmlns="http://www.w3.org/2000/svg">
<mask id="path-1-inside-1_1348_9318" fill="white">
<path d="M18.4414 19C17.911 19 17.4023 18.7893 17.0272 18.4142C16.6521 18.0391 16.4414 17.5304 16.4414 17V4C16.4414 3.46957 16.6521 2.96086 17.0272 2.58579C17.4023 2.21071 17.911 2 18.4414 2C18.9718 2 19.4805 2.21071 19.8556 2.58579C20.2307 2.96086 20.4414 3.46957 20.4414 4V17C20.4414 17.5304 20.2307 18.0391 19.8556 18.4142C19.4805 18.7893 18.9718 19 18.4414 19ZM18.4414 3C18.1762 3 17.9218 3.10536 17.7343 3.29289C17.5468 3.48043 17.4414 3.73478 17.4414 4V17C17.4414 17.2652 17.5468 17.5196 17.7343 17.7071C17.9218 17.8946 18.1762 18 18.4414 18C18.7066 18 18.961 17.8946 19.1485 17.7071C19.336 17.5196 19.4414 17.2652 19.4414 17V4C19.4414 3.73478 19.336 3.48043 19.1485 3.29289C18.961 3.10536 18.7066 3 18.4414 3Z"/>
</mask>
<path d="M18.4414 19C17.911 19 17.4023 18.7893 17.0272 18.4142C16.6521 18.0391 16.4414 17.5304 16.4414 17V4C16.4414 3.46957 16.6521 2.96086 17.0272 2.58579C17.4023 2.21071 17.911 2 18.4414 2C18.9718 2 19.4805 2.21071 19.8556 2.58579C20.2307 2.96086 20.4414 3.46957 20.4414 4V17C20.4414 17.5304 20.2307 18.0391 19.8556 18.4142C19.4805 18.7893 18.9718 19 18.4414 19ZM18.4414 3C18.1762 3 17.9218 3.10536 17.7343 3.29289C17.5468 3.48043 17.4414 3.73478 17.4414 4V17C17.4414 17.2652 17.5468 17.5196 17.7343 17.7071C17.9218 17.8946 18.1762 18 18.4414 18C18.7066 18 18.961 17.8946 19.1485 17.7071C19.336 17.5196 19.4414 17.2652 19.4414 17V4C19.4414 3.73478 19.336 3.48043 19.1485 3.29289C18.961 3.10536 18.7066 3 18.4414 3Z" fill="#FFF9F9"/>
<path d="M16.4414 17H27.1081H16.4414ZM16.4414 4H27.1081H16.4414ZM18.4414 2V-8.66667V2ZM18.4414 3V-7.66667V3ZM18.4414 8.33333C20.74 8.33333 22.9444 9.24643 24.5697 10.8717L9.48472 25.9567C11.8602 28.3321 15.082 29.6667 18.4414 29.6667V8.33333ZM24.5697 10.8717C26.195 12.4971 27.1081 14.7015 27.1081 17H5.77474C5.77474 20.3594 7.10926 23.5812 9.48472 25.9567L24.5697 10.8717ZM27.1081 17V4H5.77474V17H27.1081ZM27.1081 4C27.1081 6.29855 26.195 8.50295 24.5697 10.1283L9.48472 -4.95668C7.10926 -2.58123 5.77474 0.640588 5.77474 4H27.1081ZM24.5697 10.1283C22.9444 11.7536 20.74 12.6667 18.4414 12.6667V-8.66667C15.082 -8.66667 11.8602 -7.33215 9.48472 -4.95668L24.5697 10.1283ZM18.4414 12.6667C16.1429 12.6667 13.9385 11.7536 12.3131 10.1283L27.3981 -4.95668C25.0226 -7.33215 21.8008 -8.66667 18.4414 -8.66667V12.6667ZM12.3131 10.1283C10.6878 8.50295 9.77474 6.29855 9.77474 4H31.1081C31.1081 0.640588 29.7735 -2.58123 27.3981 -4.95668L12.3131 10.1283ZM9.77474 4V17H31.1081V4H9.77474ZM9.77474 17C9.77474 14.7015 10.6878 12.4971 12.3131 10.8717L27.3981 25.9567C29.7735 23.5812 31.1081 20.3594 31.1081 17H9.77474ZM12.3131 10.8717C13.9385 9.24643 16.1429 8.33333 18.4414 8.33333V29.6667C21.8008 29.6667 25.0226 28.3321 27.3981 25.9567L12.3131 10.8717ZM18.4414 -7.66667C15.3472 -7.66667 12.3798 -6.43751 10.1918 -4.24958L25.2768 10.8354C23.4639 12.6482 21.0052 13.6667 18.4414 13.6667V-7.66667ZM10.1918 -4.24958C8.00389 -2.06164 6.77474 0.90583 6.77474 4H28.1081C28.1081 6.56374 27.0896 9.0225 25.2768 10.8354L10.1918 -4.24958ZM6.77474 4V17H28.1081V4H6.77474ZM6.77474 17C6.77474 20.0942 8.00388 23.0616 10.1918 25.2496L25.2768 10.1646C27.0896 11.9775 28.1081 14.4363 28.1081 17H6.77474ZM10.1918 25.2496C12.3798 27.4375 15.3472 28.6667 18.4414 28.6667V7.33333C21.0051 7.33333 23.4639 8.35177 25.2768 10.1646L10.1918 25.2496ZM18.4414 28.6667C21.5356 28.6667 24.503 27.4375 26.691 25.2496L11.606 10.1646C13.4189 8.35177 15.8777 7.33333 18.4414 7.33333V28.6667ZM26.691 25.2496C28.8789 23.0616 30.1081 20.0942 30.1081 17H8.77474C8.77474 14.4363 9.79317 11.9775 11.606 10.1646L26.691 25.2496ZM30.1081 17V4H8.77474V17H30.1081ZM30.1081 4C30.1081 0.90583 28.8789 -2.06164 26.691 -4.24958L11.606 10.8354C9.79317 9.0225 8.77474 6.56374 8.77474 4H30.1081ZM26.691 -4.24958C24.5031 -6.43751 21.5356 -7.66667 18.4414 -7.66667V13.6667C15.8777 13.6667 13.4189 12.6482 11.606 10.8354L26.691 -4.24958Z" fill="white" mask="url(#path-1-inside-1_1348_9318)"/>
<mask id="path-3-inside-2_1348_9318" fill="white">
<path d="M19.9414 14.75C19.8088 14.75 19.6816 14.6973 19.5879 14.6036C19.4941 14.5098 19.4414 14.3826 19.4414 14.25V6.75C19.4414 6.6615 19.4649 6.57459 19.5095 6.49815C19.5541 6.42171 19.6182 6.35847 19.6952 6.3149C19.7723 6.27133 19.8595 6.24898 19.948 6.25014C20.0364 6.2513 20.123 6.27592 20.1989 6.3215L22.2134 7.53C22.435 7.66379 22.6183 7.8524 22.7459 8.07764C22.8734 8.30288 22.9407 8.55717 22.9414 8.816V12.184C22.9407 12.4428 22.8734 12.6971 22.7459 12.9224C22.6183 13.1476 22.435 13.3362 22.2134 13.47L20.1989 14.6785C20.1212 14.7254 20.0322 14.7501 19.9414 14.75ZM20.4414 7.633V13.367L21.6989 12.6125C21.7729 12.5681 21.8341 12.5053 21.8766 12.4302C21.919 12.3551 21.9414 12.2703 21.9414 12.184V8.816C21.9414 8.72972 21.919 8.64492 21.8766 8.56983C21.8341 8.49475 21.7729 8.43193 21.6989 8.3875L20.4414 7.633ZM8.94141 15.5H6.94141C5.61532 15.5 4.34355 14.9732 3.40587 14.0355C2.46819 13.0979 1.94141 11.8261 1.94141 10.5C1.94141 9.17392 2.46819 7.90215 3.40587 6.96447C4.34355 6.02678 5.61532 5.5 6.94141 5.5H8.94141C9.07401 5.5 9.20119 5.55268 9.29496 5.64645C9.38873 5.74021 9.44141 5.86739 9.44141 6V15C9.44141 15.1326 9.38873 15.2598 9.29496 15.3536C9.20119 15.4473 9.07401 15.5 8.94141 15.5ZM6.94141 6.5C5.88054 6.5 4.86312 6.92143 4.11298 7.67157C3.36283 8.42172 2.94141 9.43913 2.94141 10.5C2.94141 11.5609 3.36283 12.5783 4.11298 13.3284C4.86312 14.0786 5.88054 14.5 6.94141 14.5H8.44141V6.5H6.94141Z"/>
</mask>
<path d="M19.9414 14.75C19.8088 14.75 19.6816 14.6973 19.5879 14.6036C19.4941 14.5098 19.4414 14.3826 19.4414 14.25V6.75C19.4414 6.6615 19.4649 6.57459 19.5095 6.49815C19.5541 6.42171 19.6182 6.35847 19.6952 6.3149C19.7723 6.27133 19.8595 6.24898 19.948 6.25014C20.0364 6.2513 20.123 6.27592 20.1989 6.3215L22.2134 7.53C22.435 7.66379 22.6183 7.8524 22.7459 8.07764C22.8734 8.30288 22.9407 8.55717 22.9414 8.816V12.184C22.9407 12.4428 22.8734 12.6971 22.7459 12.9224C22.6183 13.1476 22.435 13.3362 22.2134 13.47L20.1989 14.6785C20.1212 14.7254 20.0322 14.7501 19.9414 14.75ZM20.4414 7.633V13.367L21.6989 12.6125C21.7729 12.5681 21.8341 12.5053 21.8766 12.4302C21.919 12.3551 21.9414 12.2703 21.9414 12.184V8.816C21.9414 8.72972 21.919 8.64492 21.8766 8.56983C21.8341 8.49475 21.7729 8.43193 21.6989 8.3875L20.4414 7.633ZM8.94141 15.5H6.94141C5.61532 15.5 4.34355 14.9732 3.40587 14.0355C2.46819 13.0979 1.94141 11.8261 1.94141 10.5C1.94141 9.17392 2.46819 7.90215 3.40587 6.96447C4.34355 6.02678 5.61532 5.5 6.94141 5.5H8.94141C9.07401 5.5 9.20119 5.55268 9.29496 5.64645C9.38873 5.74021 9.44141 5.86739 9.44141 6V15C9.44141 15.1326 9.38873 15.2598 9.29496 15.3536C9.20119 15.4473 9.07401 15.5 8.94141 15.5ZM6.94141 6.5C5.88054 6.5 4.86312 6.92143 4.11298 7.67157C3.36283 8.42172 2.94141 9.43913 2.94141 10.5C2.94141 11.5609 3.36283 12.5783 4.11298 13.3284C4.86312 14.0786 5.88054 14.5 6.94141 14.5H8.44141V6.5H6.94141Z" fill="#FFF9F9"/>
<path d="M19.9414 14.75L19.9559 4.08334L19.9486 4.08333H19.9414V14.75ZM19.4414 6.75L8.77474 6.74797V6.75H19.4414ZM20.1989 6.3215L14.7056 15.4649L14.7116 15.4685L20.1989 6.3215ZM22.2134 7.53L27.7272 -1.60104L27.714 -1.60904L27.7007 -1.61699L22.2134 7.53ZM22.9414 8.816H33.6081V8.80168L33.608 8.78737L22.9414 8.816ZM22.9414 12.184L33.608 12.2126L33.6081 12.1983V12.184H22.9414ZM22.2134 13.47L27.7007 22.617L27.714 22.609L27.7272 22.601L22.2134 13.47ZM20.1989 14.6785L14.7116 5.53151L14.6992 5.53893L14.6869 5.54638L20.1989 14.6785ZM20.4414 7.633L25.9294 -1.51359L9.77474 -11.2064V7.633H20.4414ZM20.4414 13.367H9.77474V32.2064L25.9294 22.5136L20.4414 13.367ZM21.6989 12.6125L27.1869 21.7591L27.1922 21.7559L21.6989 12.6125ZM21.9414 12.184L32.6081 12.186V12.184H21.9414ZM21.9414 8.816H32.6081L32.6081 8.81397L21.9414 8.816ZM21.6989 8.3875L27.1922 -0.755863L27.1869 -0.759091L21.6989 8.3875ZM6.94141 15.5V26.1667V15.5ZM1.94141 10.5H-8.72526H1.94141ZM6.94141 5.5V-5.16667V5.5ZM6.94141 6.5V-4.16667V6.5ZM2.94141 10.5H-7.72526H2.94141ZM6.94141 14.5V25.1667V14.5ZM8.44141 14.5V25.1667H19.1081V14.5H8.44141ZM8.44141 6.5H19.1081V-4.16667H8.44141V6.5ZM19.9414 4.08333C22.6377 4.08333 25.2237 5.15444 27.1303 7.06108L12.0454 22.146C14.1396 24.2402 16.9799 25.4167 19.9414 25.4167V4.08333ZM27.1303 7.06108C29.037 8.96772 30.1081 11.5537 30.1081 14.25H8.77474C8.77474 17.2116 9.9512 20.0518 12.0454 22.146L27.1303 7.06108ZM30.1081 14.25V6.75H8.77474V14.25H30.1081ZM30.1081 6.75203C30.1077 8.55148 29.6298 10.3186 28.7231 11.873L10.296 1.12335C9.30006 2.83057 8.77512 4.77152 8.77474 6.74797L30.1081 6.75203ZM28.7231 11.873C27.8163 13.4273 26.5133 14.7131 24.9471 15.5991L14.4434 -2.96928C12.7231 -1.99617 11.2919 -0.583896 10.296 1.12335L28.7231 11.873ZM24.9471 15.5991C23.3809 16.485 21.6075 16.9395 19.8082 16.9159L20.0877 -4.41561C18.1114 -4.44151 16.1636 -3.94239 14.4434 -2.96928L24.9471 15.5991ZM19.8082 16.9159C18.0089 16.8923 16.2481 16.3916 14.7056 15.4649L25.6922 -2.82186C23.998 -3.83974 22.064 -4.38971 20.0877 -4.41561L19.8082 16.9159ZM14.7116 15.4685L16.7261 16.677L27.7007 -1.61699L25.6862 -2.82549L14.7116 15.4685ZM16.6996 16.661C15.3529 15.8478 14.2384 14.7015 13.4633 13.3324L32.0284 2.82285C30.9983 1.00332 29.517 -0.52025 27.7272 -1.60104L16.6996 16.661ZM13.4633 13.3324C12.6883 11.9634 12.279 10.4178 12.2748 8.84463L33.608 8.78737C33.6024 6.69652 33.0584 4.64237 32.0284 2.82285L13.4633 13.3324ZM12.2747 8.816V12.184H33.6081V8.816H12.2747ZM12.2748 12.1554C12.279 10.5822 12.6883 9.0366 13.4633 7.66757L32.0284 18.1772C33.0584 16.3576 33.6024 14.3035 33.608 12.2126L12.2748 12.1554ZM13.4633 7.66757C14.2384 6.29853 15.3529 5.15217 16.6996 4.33896L27.7272 22.601C29.517 21.5202 30.9983 19.9967 32.0284 18.1772L13.4633 7.66757ZM16.7261 4.32301L14.7116 5.53151L25.6862 23.8255L27.7007 22.617L16.7261 4.32301ZM14.6869 5.54638C16.2767 4.58679 18.0989 4.08082 19.9559 4.08334L19.9269 25.4167C21.9654 25.4194 23.9657 24.864 25.7109 23.8106L14.6869 5.54638ZM9.77474 7.633V13.367H31.1081V7.633H9.77474ZM25.9294 22.5136L27.1869 21.7591L16.211 3.46591L14.9535 4.22041L25.9294 22.5136ZM27.1922 21.7559C28.8439 20.7635 30.2107 19.3607 31.1597 17.6838L12.5934 7.17656C13.4574 5.64981 14.7018 4.37261 16.2056 3.46914L27.1922 21.7559ZM31.1597 17.6838C32.1087 16.0069 32.6077 14.1129 32.6081 12.186L11.2747 12.182C11.2751 10.4276 11.7294 8.70328 12.5934 7.17656L31.1597 17.6838ZM32.6081 12.184V8.816H11.2747V12.184H32.6081ZM32.6081 8.81397C32.6077 6.88707 32.1087 4.99311 31.1597 3.31623L12.5934 13.8234C11.7294 12.2967 11.2751 10.5724 11.2747 8.81803L32.6081 8.81397ZM31.1597 3.31623C30.2107 1.63931 28.8439 0.236471 27.1922 -0.755862L16.2056 17.5309C14.7018 16.6274 13.4574 15.3502 12.5934 13.8234L31.1597 3.31623ZM27.1869 -0.759091L25.9294 -1.51359L14.9535 16.7796L16.2109 17.5341L27.1869 -0.759091ZM8.94141 4.83333H6.94141V26.1667H8.94141V4.83333ZM6.94141 4.83333C8.4443 4.83333 9.88564 5.43036 10.9483 6.49306L-4.1366 21.578C-1.19853 24.5161 2.78635 26.1667 6.94141 26.1667V4.83333ZM10.9483 6.49306C12.0111 7.55577 12.6081 8.99711 12.6081 10.5H-8.72526C-8.72526 14.6551 -7.07467 18.6399 -4.1366 21.578L10.9483 6.49306ZM12.6081 10.5C12.6081 12.0029 12.0111 13.4442 10.9483 14.5069L-4.1366 -0.578006C-7.07467 2.36006 -8.72526 6.34494 -8.72526 10.5H12.6081ZM10.9483 14.5069C9.88564 15.5696 8.4443 16.1667 6.94141 16.1667V-5.16667C2.78635 -5.16667 -1.19853 -3.51608 -4.1366 -0.578006L10.9483 14.5069ZM6.94141 16.1667H8.94141V-5.16667H6.94141V16.1667ZM8.94141 16.1667C6.24504 16.1667 3.65911 15.0955 1.75249 13.1889L16.8374 -1.89603C14.7433 -3.99018 11.903 -5.16667 8.94141 -5.16667V16.1667ZM1.75249 13.1889C-0.154146 11.2823 -1.22526 8.69635 -1.22526 6H20.1081C20.1081 3.03843 18.9316 0.198144 16.8374 -1.89603L1.75249 13.1889ZM-1.22526 6V15H20.1081V6H-1.22526ZM-1.22526 15C-1.22526 12.3037 -0.154154 9.71772 1.75249 7.81108L16.8374 22.896C18.9316 20.8019 20.1081 17.9616 20.1081 15H-1.22526ZM1.75249 7.81108C3.65913 5.90444 6.24507 4.83333 8.94141 4.83333V26.1667C11.903 26.1667 14.7433 24.9902 16.8374 22.896L1.75249 7.81108ZM6.94141 -4.16667C3.05156 -4.16667 -0.67896 -2.62143 -3.42949 0.129101L11.6555 15.214C10.4052 16.4643 8.70952 17.1667 6.94141 17.1667V-4.16667ZM-3.42949 0.129101C-6.18003 2.87963 -7.72526 6.61016 -7.72526 10.5H13.6081C13.6081 12.2681 12.9057 13.9638 11.6555 15.214L-3.42949 0.129101ZM-7.72526 10.5C-7.72526 14.3898 -6.18003 18.1204 -3.42949 20.8709L11.6555 5.78596C12.9057 7.0362 13.6081 8.73189 13.6081 10.5H-7.72526ZM-3.42949 20.8709C-0.67896 23.6214 3.05156 25.1667 6.94141 25.1667V3.83333C8.70952 3.83333 10.4052 4.53571 11.6555 5.78596L-3.42949 20.8709ZM6.94141 25.1667H8.44141V3.83333H6.94141V25.1667ZM19.1081 14.5V6.5H-2.22526V14.5H19.1081ZM8.44141 -4.16667H6.94141V17.1667H8.44141V-4.16667Z" fill="white" mask="url(#path-3-inside-2_1348_9318)"/>
<path d="M7.94141 23C7.27861 22.9992 6.64319 22.7356 6.17452 22.2669C5.70585 21.7982 5.4422 21.1628 5.44141 20.5V15C5.44141 14.8674 5.49408 14.7402 5.58785 14.6464C5.68162 14.5527 5.8088 14.5 5.94141 14.5H8.94141C9.07402 14.5 9.20119 14.5527 9.29496 14.6464C9.38873 14.7402 9.44141 14.8674 9.44141 15C9.44141 15.1326 9.38873 15.2598 9.29496 15.3536C9.20119 15.4473 9.07402 15.5 8.94141 15.5H6.44141V20.5C6.44141 20.8978 6.59944 21.2794 6.88075 21.5607C7.16205 21.842 7.54358 22 7.94141 22C8.33923 22 8.72076 21.842 9.00207 21.5607C9.28337 21.2794 9.44141 20.8978 9.44141 20.5V15.135C9.44141 15.0024 9.49409 14.8752 9.58785 14.7814C9.68162 14.6877 9.8088 14.635 9.94141 14.635C10.074 14.635 10.2012 14.6877 10.295 14.7814C10.3887 14.8752 10.4414 15.0024 10.4414 15.135V20.5C10.4406 21.1628 10.177 21.7982 9.7083 22.2669C9.23963 22.7356 8.6042 22.9992 7.94141 23Z" fill="#FFF9F9"/>
<path d="M16.9414 17.4998C16.8797 17.4999 16.8185 17.4885 16.7609 17.4663C15.7921 17.0913 14.806 16.7626 13.8059 16.4813C12.192 16.0277 10.5456 15.6984 8.88141 15.4963C8.76005 15.4816 8.64828 15.423 8.5672 15.3315C8.48613 15.2401 8.44138 15.122 8.44141 14.9998V5.9998C8.44127 5.87108 8.49078 5.74727 8.57963 5.65414C8.66848 5.561 8.78983 5.50572 8.91841 5.4998C10.7434 5.41706 12.549 5.08894 14.2864 4.5243C15.1198 4.25269 15.9347 3.92717 16.7259 3.5498C16.802 3.51344 16.8861 3.49693 16.9703 3.50181C17.0546 3.5067 17.1362 3.53281 17.2076 3.57773C17.279 3.62264 17.3379 3.6849 17.3788 3.7587C17.4197 3.83249 17.4412 3.91544 17.4414 3.9998V16.9998C17.4414 17.1324 17.3887 17.2596 17.295 17.3534C17.2012 17.4471 17.074 17.4998 16.9414 17.4998ZM9.44141 14.5598C11.007 14.7711 12.5559 15.0913 14.0769 15.5183C14.8694 15.7413 15.6624 15.9963 16.4414 16.2788V4.7788C15.8364 5.0408 15.2184 5.2748 14.5964 5.4788C12.9255 6.02084 11.1941 6.35437 9.44141 6.4718V14.5598Z" fill="#FFF9F9"/>
<path d="M10.9414 19.4998H9.94141C9.8088 19.4998 9.68162 19.4471 9.58785 19.3533C9.49408 19.2596 9.44141 19.1324 9.44141 18.9998V15.1348C9.44141 15.0022 9.49408 14.875 9.58785 14.7812C9.68162 14.6874 9.8088 14.6348 9.94141 14.6348C10.074 14.6348 10.2012 14.6874 10.295 14.7812C10.3887 14.875 10.4414 15.0022 10.4414 15.1348V18.4998H10.9414C11.3392 18.4998 11.7208 18.3417 12.0021 18.0604C12.2834 17.7791 12.4414 17.3976 12.4414 16.9998V15.7398C12.4414 15.6072 12.4941 15.48 12.5879 15.3862C12.6816 15.2924 12.8088 15.2398 12.9414 15.2398C13.074 15.2398 13.2012 15.2924 13.295 15.3862C13.3887 15.48 13.4414 15.6072 13.4414 15.7398V16.9998C13.4406 17.6626 13.177 18.298 12.7083 18.7667C12.2396 19.2353 11.6042 19.499 10.9414 19.4998Z" fill="#FFF9F9"/>
</svg>
