<svg width="64" height="35" viewBox="0 0 64 35" fill="none" xmlns="http://www.w3.org/2000/svg">
<rect x="0.84375" y="2.89893" width="59.9551" height="28.55" rx="14.275" fill="#B65535"/>
<path d="M5.74986 17.3994C5.94217 20.1505 8.27657 22.3887 11.0704 22.5116C13.0415 22.597 14.8043 21.6782 15.862 20.2306C16.3001 19.6376 16.065 19.2423 15.3332 19.3759C14.9753 19.44 14.6067 19.4667 14.2221 19.4507C11.6099 19.3438 9.47315 17.159 9.46247 14.5789C9.45712 13.8844 9.60136 13.2274 9.86311 12.6291C10.1516 11.9667 9.80435 11.6515 9.13661 11.9346C7.02123 12.8267 5.57358 14.9582 5.74986 17.3994Z" stroke="white" stroke-width="0.801282" stroke-linecap="round" stroke-linejoin="round"/>
<path d="M48.8401 21.7656C51.3762 21.7656 53.4321 19.7097 53.4321 17.1736C53.4321 14.6375 51.3762 12.5815 48.8401 12.5815C46.304 12.5815 44.248 14.6375 44.248 17.1736C44.248 19.7097 46.304 21.7656 48.8401 21.7656Z" stroke="white" stroke-width="0.801282" stroke-linecap="round" stroke-linejoin="round"/>
<path d="M53.8861 22.2182L53.7943 22.1263M53.7943 12.2217L53.8861 12.1299L53.7943 12.2217ZM43.7978 22.2182L43.8897 22.1263L43.7978 22.2182ZM48.842 10.1659V10.1094V10.1659ZM48.842 24.2386V24.1821V24.2386ZM41.8339 17.174H41.7773H41.8339ZM55.9066 17.174H55.8501H55.9066ZM43.8897 12.2217L43.7978 12.1299L43.8897 12.2217Z" stroke="white" stroke-width="1.06838" stroke-linecap="round" stroke-linejoin="round"/>
<ellipse cx="46.4348" cy="17.1737" rx="12.0273" ry="12.0732" transform="rotate(-135 46.4348 17.1737)" fill="white"/>
<path d="M53.4778 10.1298C57.3501 14.0021 57.3355 20.2948 53.4453 24.1851" stroke="#B65535" stroke-width="1.80499" stroke-linecap="round"/>
<path d="M46.4328 21.7651C48.9689 21.7651 51.0248 19.7092 51.0248 17.1731C51.0248 14.637 48.9689 12.5811 46.4328 12.5811C43.8967 12.5811 41.8408 14.637 41.8408 17.1731C41.8408 19.7092 43.8967 21.7651 46.4328 21.7651Z" stroke="#B65535" stroke-width="0.801282" stroke-linecap="round" stroke-linejoin="round"/>
<path d="M51.4799 22.2177L51.388 22.1258M51.388 12.2212L51.4799 12.1294L51.388 12.2212ZM41.3916 22.2177L41.4834 22.1258L41.3916 22.2177ZM46.4357 10.1654V10.1089V10.1654ZM46.4357 24.2381V24.1816V24.2381ZM39.4276 17.1735H39.3711H39.4276ZM53.5004 17.1735H53.4438H53.5004ZM41.4834 12.2212L41.3916 12.1294L41.4834 12.2212Z" stroke="#B65535" stroke-width="1.06838" stroke-linecap="round" stroke-linejoin="round"/>
</svg>
