<svg width="25" height="25" viewBox="0 0 25 25" fill="none" xmlns="http://www.w3.org/2000/svg">
<path d="M16.4414 4.5C18.6164 4.51211 19.7943 4.60856 20.5627 5.37694C21.4414 6.25562 21.4414 7.66983 21.4414 10.4983V16.4983C21.4414 19.3267 21.4414 20.7409 20.5627 21.6196C19.684 22.4983 18.2698 22.4983 15.4414 22.4983H9.44141C6.61298 22.4983 5.19877 22.4983 4.32009 21.6196C3.44141 20.7409 3.44141 19.3267 3.44141 16.4983V10.4983C3.44141 7.66983 3.44141 6.25562 4.32009 5.37694C5.08847 4.60856 6.26638 4.51211 8.44141 4.5" stroke="white" stroke-width="1.5"/>
<path d="M9.44141 13.9L11.1557 15.5L15.4414 11.5" stroke="white" stroke-width="1.5" stroke-linecap="round" stroke-linejoin="round"/>
<path d="M8.44141 4C8.44141 3.17157 9.11298 2.5 9.94141 2.5H14.9414C15.7698 2.5 16.4414 3.17157 16.4414 4V5C16.4414 5.82843 15.7698 6.5 14.9414 6.5H9.94141C9.11298 6.5 8.44141 5.82843 8.44141 5V4Z" stroke="white" stroke-width="1.5"/>
</svg>
