<svg width="25" height="25" viewBox="0 0 25 25" fill="none" xmlns="http://www.w3.org/2000/svg">
<path d="M18.6905 9.50496V10.2096C18.6905 11.1498 18.9586 12.0705 19.4629 12.8556L20.5704 14.5797C21.4101 15.8871 20.7543 17.64 19.3349 18.0418C14.8215 19.3194 10.0613 19.3194 5.54795 18.0418C4.12853 17.64 3.47274 15.8871 4.31246 14.5797L5.4199 12.8556C5.92421 12.0705 6.19228 11.1498 6.19228 10.2096V9.50496C6.19228 5.89468 9.00748 3 12.4414 3C15.8753 3 18.6905 5.89468 18.6905 9.50496Z" stroke="white"/>
<path d="M7.94141 19.5C8.59643 21.2478 10.3639 22.5 12.4414 22.5C14.519 22.5 16.2864 21.2478 16.9414 19.5" stroke="white" stroke-width="1.5" stroke-linecap="round"/>
</svg>
