<svg width="25" height="25" viewBox="0 0 25 25" fill="none" xmlns="http://www.w3.org/2000/svg">
<path fill-rule="evenodd" clip-rule="evenodd" d="M6.67409 2.543C7.89142 1.33258 9.89579 1.54804 10.9151 2.90962L12.1761 4.59402C13.0055 5.70191 12.9323 7.25032 11.9478 8.22923L11.709 8.46665C11.6986 8.49694 11.6733 8.59215 11.7014 8.7731C11.7646 9.1806 12.1049 10.045 13.5334 11.4654C14.9614 12.8853 15.832 13.2253 16.2452 13.2887C16.4325 13.3174 16.5305 13.2906 16.5608 13.28L16.9688 12.8743C17.844 12.0041 19.1889 11.8414 20.2725 12.4305L22.183 13.4691C23.8189 14.3584 24.2323 16.5821 22.8919 17.9148L21.4714 19.3273C21.0238 19.7723 20.4219 20.1434 19.6873 20.2119C17.8783 20.3806 13.6601 20.1654 9.228 15.7584C5.09008 11.644 4.29602 8.056 4.19555 6.28817L4.94435 6.24562L4.19555 6.28817C4.14475 5.39426 4.56717 4.63796 5.10449 4.10369L6.67409 2.543ZM9.71432 3.80856C9.20769 3.13182 8.26341 3.07801 7.73173 3.60668L6.16213 5.16737C5.8322 5.49542 5.67347 5.85695 5.69314 6.20307C5.77296 7.60766 6.41426 10.8453 10.2856 14.6947C14.3471 18.7331 18.0983 18.8536 19.5481 18.7184C19.8444 18.6908 20.1389 18.5369 20.4138 18.2636L21.8343 16.8511C22.4118 16.277 22.2844 15.2315 21.4666 14.7869L19.5561 13.7484C19.0285 13.4616 18.4104 13.5562 18.0264 13.938L17.571 14.3909L17.0422 13.859C17.571 14.3909 17.5703 14.3916 17.5696 14.3923L17.5681 14.3937L17.565 14.3967L17.5586 14.403L17.5439 14.4166C17.5334 14.4262 17.5214 14.4367 17.5078 14.448C17.4806 14.4705 17.4472 14.4959 17.4073 14.5227C17.3272 14.5763 17.2215 14.6347 17.0887 14.6841C16.8178 14.785 16.4606 14.8392 16.0178 14.7713C15.151 14.6384 14.0028 14.0474 12.4758 12.5291C10.9493 11.0113 10.3533 9.86834 10.2191 9.00306C10.1505 8.56061 10.2052 8.20331 10.3073 7.93225C10.3574 7.79941 10.4164 7.69378 10.4705 7.61389C10.4975 7.57405 10.5232 7.54074 10.5459 7.51368C10.5572 7.50015 10.5678 7.48817 10.5774 7.4777L10.5912 7.46312L10.5975 7.45666L10.6005 7.45363L10.6019 7.45217C10.6026 7.45146 10.6033 7.45075 11.1322 7.98258L10.6033 7.45075L10.8902 7.16556C11.3188 6.73939 11.3788 6.03194 10.9753 5.49297L9.71432 3.80856Z" fill="#B65535"/>
</svg>
