<svg width="25" height="25" viewBox="0 0 25 25" fill="none" xmlns="http://www.w3.org/2000/svg">
<path fill-rule="evenodd" clip-rule="evenodd" d="M6.44886 3.6842C8.12892 2.00413 10.9641 2.13185 12.1339 4.22798L12.7829 5.3909C13.5468 6.75972 13.2213 8.48681 12.103 9.61878C12.0881 9.63918 12.0091 9.75411 11.9993 9.95493C11.9868 10.2112 12.0778 10.804 12.9962 11.7225C13.9144 12.6406 14.5071 12.7318 14.7635 12.7194C14.9645 12.7096 15.0795 12.6306 15.0999 12.6157C16.2319 11.4974 17.959 11.1719 19.3278 11.9358L20.4907 12.5848C22.5868 13.7546 22.7145 16.5898 21.0345 18.2698C20.1358 19.1685 18.9409 19.967 17.5367 20.0202C15.4558 20.0991 12.0005 19.5617 8.57875 16.1399C5.15697 12.7181 4.61958 9.26291 4.69847 7.18198C4.7517 5.77778 5.5502 4.58286 6.44886 3.6842ZM10.8241 4.95897C10.225 3.88563 8.61535 3.63903 7.50952 4.74486C6.73417 5.52021 6.2301 6.37602 6.19739 7.2388C6.13161 8.97414 6.56005 11.9999 9.63941 15.0793C12.7188 18.1586 15.7445 18.5871 17.4799 18.5213C18.3427 18.4886 19.1985 17.9845 19.9738 17.2092C21.0796 16.1033 20.8331 14.4936 19.7597 13.8946L18.5968 13.2456C17.8734 12.8419 16.8573 12.9796 16.1439 13.6929L16.1437 13.6931C16.0736 13.7631 15.6278 14.1791 14.8364 14.2176C14.0261 14.257 13.0454 13.893 11.9356 12.7831C10.8254 11.6729 10.4614 10.6919 10.5011 9.88157C10.5399 9.09006 10.9561 8.64445 11.0257 8.5748L11.0258 8.57477C11.7391 7.86145 11.8768 6.84531 11.4731 6.1219L10.8241 4.95897Z" fill="#1D1C1B"/>
<path fill-rule="evenodd" clip-rule="evenodd" d="M6.44886 3.6842C8.12892 2.00413 10.9641 2.13185 12.1339 4.22798L12.7829 5.3909C13.5468 6.75972 13.2213 8.48681 12.103 9.61878C12.0881 9.63918 12.0091 9.75411 11.9993 9.95493C11.9868 10.2112 12.0778 10.804 12.9962 11.7225C13.9144 12.6406 14.5071 12.7318 14.7635 12.7194C14.9645 12.7096 15.0795 12.6306 15.0999 12.6157C16.2319 11.4974 17.959 11.1719 19.3278 11.9358L20.4907 12.5848C22.5868 13.7546 22.7145 16.5898 21.0345 18.2698C20.1358 19.1685 18.9409 19.967 17.5367 20.0202C15.4558 20.0991 12.0005 19.5617 8.57875 16.1399C5.15697 12.7181 4.61958 9.26291 4.69847 7.18198C4.7517 5.77778 5.5502 4.58286 6.44886 3.6842ZM10.8241 4.95897C10.225 3.88563 8.61535 3.63903 7.50952 4.74486C6.73417 5.52021 6.2301 6.37602 6.19739 7.2388C6.13161 8.97414 6.56005 11.9999 9.63941 15.0793C12.7188 18.1586 15.7445 18.5871 17.4799 18.5213C18.3427 18.4886 19.1985 17.9845 19.9738 17.2092C21.0796 16.1033 20.8331 14.4936 19.7597 13.8946L18.5968 13.2456C17.8734 12.8419 16.8573 12.9796 16.1439 13.6929L16.1437 13.6931C16.0736 13.7631 15.6278 14.1791 14.8364 14.2176C14.0261 14.257 13.0454 13.893 11.9356 12.7831C10.8254 11.6729 10.4614 10.6919 10.5011 9.88157C10.5399 9.09006 10.9561 8.64445 11.0257 8.5748L11.0258 8.57477C11.7391 7.86145 11.8768 6.84531 11.4731 6.1219L10.8241 4.95897Z" fill="black" fill-opacity="0.2"/>
</svg>
