<svg width="22" height="23" viewBox="0 0 22 23" fill="none" xmlns="http://www.w3.org/2000/svg">
<path d="M11.6914 8.5C11.6914 8.08579 11.3556 7.75 10.9414 7.75C10.5272 7.75 10.1914 8.08579 10.1914 8.5L10.1914 10.75H7.94141C7.52719 10.75 7.19141 11.0858 7.19141 11.5C7.19141 11.9142 7.52719 12.25 7.94141 12.25H10.1914V14.5C10.1914 14.9142 10.5272 15.25 10.9414 15.25C11.3556 15.25 11.6914 14.9142 11.6914 14.5L11.6914 12.25H13.9414C14.3556 12.25 14.6914 11.9142 14.6914 11.5C14.6914 11.0858 14.3556 10.75 13.9414 10.75H11.6914V8.5Z" fill="white"/>
<path fill-rule="evenodd" clip-rule="evenodd" d="M10.9414 0.75C5.00435 0.75 0.191406 5.56294 0.191406 11.5C0.191406 17.4371 5.00435 22.25 10.9414 22.25C16.8785 22.25 21.6914 17.4371 21.6914 11.5C21.6914 5.56294 16.8785 0.75 10.9414 0.75ZM1.69141 11.5C1.69141 6.39137 5.83277 2.25 10.9414 2.25C16.05 2.25 20.1914 6.39137 20.1914 11.5C20.1914 16.6086 16.05 20.75 10.9414 20.75C5.83277 20.75 1.69141 16.6086 1.69141 11.5Z" fill="white"/>
</svg>
