<svg width="41" height="41" viewBox="0 0 41 41" fill="none" xmlns="http://www.w3.org/2000/svg">
<path d="M12.4414 25.2998H19.4414" stroke="#1D1C1B" stroke-width="1.5" stroke-linecap="round"/>
<path d="M12.4414 25.2998H19.4414" stroke="black" stroke-opacity="0.2" stroke-width="1.5" stroke-linecap="round"/>
<path d="M12.4414 20.2998H19.4414" stroke="#1D1C1B" stroke-width="1.5" stroke-linecap="round"/>
<path d="M12.4414 20.2998H19.4414" stroke="black" stroke-opacity="0.2" stroke-width="1.5" stroke-linecap="round"/>
<path d="M12.4414 15.2998L19.4414 15.2998" stroke="#1D1C1B" stroke-width="1.5" stroke-linecap="round"/>
<path d="M12.4414 15.2998L19.4414 15.2998" stroke="black" stroke-opacity="0.2" stroke-width="1.5" stroke-linecap="round"/>
<path d="M25.4414 12.2998L25.4414 28.2998M25.4414 12.2998L22.4414 16.2998M25.4414 12.2998L28.4414 16.2998M25.4414 28.2998L28.4414 24.2998M25.4414 28.2998L22.4414 24.2998" stroke="#1D1C1B" stroke-width="1.5" stroke-linecap="round" stroke-linejoin="round"/>
<path d="M25.4414 12.2998L25.4414 28.2998M25.4414 12.2998L22.4414 16.2998M25.4414 12.2998L28.4414 16.2998M25.4414 28.2998L28.4414 24.2998M25.4414 28.2998L22.4414 24.2998" stroke="black" stroke-opacity="0.2" stroke-width="1.5" stroke-linecap="round" stroke-linejoin="round"/>
</svg>
