<svg width="25" height="25" viewBox="0 0 25 25" fill="none" xmlns="http://www.w3.org/2000/svg">
<path d="M8.43945 16.5H12.4394M8.43945 11.5H16.4394" stroke="white" stroke-width="1.5" stroke-linecap="round"/>
<path d="M7.94141 4C6.38561 4.04667 5.45802 4.21984 4.81618 4.86227C3.9375 5.74177 3.9375 7.1573 3.9375 9.98836V16.4944C3.9375 19.3255 3.9375 20.741 4.81618 21.6205C5.69486 22.5 7.10908 22.5 9.9375 22.5H14.9375C17.7659 22.5 19.1801 22.5 20.0588 21.6205C20.9375 20.741 20.9375 19.3255 20.9375 16.4944V9.98836C20.9375 7.1573 20.9375 5.74177 20.0588 4.86228C19.417 4.21984 18.4894 4.04667 16.9336 4" stroke="white" stroke-width="1.5"/>
<path d="M7.9375 4.25C7.9375 3.2835 8.72101 2.5 9.6875 2.5H15.1875C16.154 2.5 16.9375 3.2835 16.9375 4.25C16.9375 5.2165 16.154 6 15.1875 6H9.6875C8.72101 6 7.9375 5.2165 7.9375 4.25Z" stroke="white" stroke-width="1.5" stroke-linejoin="round"/>
</svg>
