<svg width="25" height="25" viewBox="0 0 25 25" fill="none" xmlns="http://www.w3.org/2000/svg">
<path d="M17.1964 2.5H7.68642C6.52755 2.5 5.94811 2.5 5.48079 2.66261C4.59463 2.97096 3.89889 3.68719 3.59936 4.59946C3.44141 5.08055 3.44141 5.67705 3.44141 6.87006V20.8742C3.44141 21.7324 4.4264 22.1878 5.0495 21.6176C5.41558 21.2826 5.96723 21.2826 6.33331 21.6176L6.81641 22.0597C7.45799 22.6468 8.42482 22.6468 9.06641 22.0597C9.70799 21.4726 10.6748 21.4726 11.3164 22.0597C11.958 22.6468 12.9248 22.6468 13.5664 22.0597C14.208 21.4726 15.1748 21.4726 15.8164 22.0597C16.458 22.6468 17.4248 22.6468 18.0664 22.0597L18.5495 21.6176C18.9156 21.2826 19.4672 21.2826 19.8333 21.6176C20.4564 22.1878 21.4414 21.7324 21.4414 20.8742V6.87006C21.4414 5.67705 21.4414 5.08055 21.2835 4.59946C20.9839 3.68719 20.2882 2.97096 19.402 2.66261C18.9347 2.5 18.3553 2.5 17.1964 2.5Z" stroke="white" stroke-width="1.5"/>
<path d="M9.94141 10.9L11.37 12.5L14.9414 8.5" stroke="white" stroke-width="1.5" stroke-linecap="round" stroke-linejoin="round"/>
<path d="M7.94141 16H16.9414" stroke="white" stroke-width="1.5" stroke-linecap="round"/>
</svg>
