<svg width="19" height="17" viewBox="0 0 19 17" fill="none" xmlns="http://www.w3.org/2000/svg">
<path d="M9.17251 0.375C5.17794 0.375 1.89408 3.4275 1.5739 7.31944H0.773456C0.52022 7.31944 0.292012 7.47225 0.195563 7.7064C0.0991135 7.94055 0.153487 8.20976 0.333254 8.38812L1.7331 9.77701C1.97677 10.0188 2.36983 10.0188 2.6135 9.77701L4.01334 8.38812C4.19311 8.20976 4.24748 7.94055 4.15103 7.7064C4.05459 7.47225 3.82638 7.31944 3.57314 7.31944H2.82911C3.14553 4.12639 5.86076 1.625 9.17251 1.625C11.4805 1.625 13.5007 2.84037 14.6198 4.66066C14.8005 4.95471 15.1855 5.04654 15.4795 4.86576C15.7736 4.68499 15.8654 4.30006 15.6846 4.00601C14.346 1.82856 11.9295 0.375 9.17251 0.375Z" fill="#B65535"/>
<path d="M16.4744 7.22215C16.2309 6.9815 15.8392 6.9815 15.5957 7.22215L14.1905 8.61104C14.0102 8.78921 13.9554 9.0586 14.0517 9.29305C14.148 9.52749 14.3764 9.68055 14.6298 9.68055H15.3791C15.0614 12.8718 12.3367 15.375 9.00906 15.375C6.69032 15.375 4.66166 14.1586 3.5384 12.3384C3.35712 12.0447 2.97204 11.9535 2.6783 12.1348C2.38455 12.3161 2.29338 12.7012 2.47466 12.9949C3.8185 15.1725 6.24348 16.625 9.00906 16.625C13.0156 16.625 16.313 13.5744 16.6344 9.68055H17.4402C17.6937 9.68055 17.922 9.52749 18.0184 9.29305C18.1147 9.0586 18.0598 8.78921 17.8796 8.61104L16.4744 7.22215Z" fill="#B65535"/>
</svg>
