<svg width="21" height="21" viewBox="0 0 21 21" fill="none" xmlns="http://www.w3.org/2000/svg">
<path fill-rule="evenodd" clip-rule="evenodd" d="M10.4414 20.5C15.9643 20.5 20.4414 16.0228 20.4414 10.5C20.4414 4.97715 15.9643 0.5 10.4414 0.5C4.91856 0.5 0.441406 4.97715 0.441406 10.5C0.441406 16.0228 4.91856 20.5 10.4414 20.5ZM10.9111 6.96967C11.204 6.67678 11.6788 6.67678 11.9717 6.96967L14.9717 9.96967C15.2646 10.2626 15.2646 10.7374 14.9717 11.0303L11.9717 14.0303C11.6788 14.3232 11.204 14.3232 10.9111 14.0303C10.6182 13.7374 10.6182 13.2626 10.9111 12.9697L12.6307 11.25H6.44141C6.02719 11.25 5.69141 10.9142 5.69141 10.5C5.69141 10.0858 6.02719 9.75 6.44141 9.75H12.6307L10.9111 8.03033C10.6182 7.73744 10.6182 7.26256 10.9111 6.96967Z" fill="#B65535"/>
</svg>
