<svg width="25" height="25" viewBox="0 0 25 25" fill="none" xmlns="http://www.w3.org/2000/svg">
<path d="M19.3219 18.3713L19.018 18.723L19.3467 19.0518L22.6182 22.3232C22.7158 22.4209 22.7158 22.5791 22.6182 22.6768C22.5206 22.7744 22.3623 22.7744 22.2646 22.6768L18.9932 19.4053L18.6645 19.0766L18.3127 19.3805C16.6036 20.8573 14.3774 21.75 11.9414 21.75C6.55663 21.75 2.19141 17.3848 2.19141 12C2.19141 6.61522 6.55663 2.25 11.9414 2.25C17.3262 2.25 21.6914 6.61522 21.6914 12C21.6914 14.436 20.7987 16.6622 19.3219 18.3713ZM11.9414 2.75C6.83277 2.75 2.69141 6.89137 2.69141 12C2.69141 17.1086 6.83277 21.25 11.9414 21.25C17.05 21.25 21.1914 17.1086 21.1914 12C21.1914 6.89137 17.05 2.75 11.9414 2.75Z" stroke="white" stroke-linecap="round"/>
</svg>
