<svg width="25" height="25" viewBox="0 0 25 25" fill="none" xmlns="http://www.w3.org/2000/svg">
<path d="M13.6914 2.5C13.6914 2.08579 13.3556 1.75 12.9414 1.75C12.5272 1.75 12.1914 2.08579 12.1914 2.5V6.5C12.1914 6.91421 12.5272 7.25 12.9414 7.25C13.3556 7.25 13.6914 6.91421 13.6914 6.5V2.5Z" fill="#DC9C87"/>
<path d="M9.7333 4.89678C10.1149 4.73557 10.2935 4.29557 10.1323 3.91402C9.97106 3.53246 9.53107 3.35384 9.14951 3.51505C5.64973 4.99372 3.19141 8.45891 3.19141 12.5C3.19141 17.8848 7.55663 22.25 12.9414 22.25C18.3262 22.25 22.6914 17.8848 22.6914 12.5C22.6914 8.45891 20.2331 4.99372 16.7333 3.51505C16.3517 3.35384 15.9117 3.53246 15.7505 3.91402C15.5893 4.29557 15.768 4.73557 16.1495 4.89678C19.1136 6.14913 21.1914 9.08279 21.1914 12.5C21.1914 17.0564 17.4978 20.75 12.9414 20.75C8.38506 20.75 4.69141 17.0564 4.69141 12.5C4.69141 9.08279 6.7692 6.14913 9.7333 4.89678Z" fill="#DC9C87"/>
</svg>
