<svg width="16" height="16" viewBox="0 0 16 16" fill="none" xmlns="http://www.w3.org/2000/svg">
<path d="M7.69357 12.5912C10.2297 12.5912 12.2856 10.5353 12.2856 7.99924C12.2856 5.46314 10.2297 3.40723 7.69357 3.40723C5.15748 3.40723 3.10156 5.46314 3.10156 7.99924C3.10156 10.5353 5.15748 12.5912 7.69357 12.5912Z" stroke="#B65535" stroke-width="0.801282" stroke-linecap="round" stroke-linejoin="round"/>
<path d="M12.7396 13.0437L12.6478 12.9519M12.6478 3.04726L12.7396 2.95542L12.6478 3.04726ZM2.65134 13.0437L2.74318 12.9519L2.65134 13.0437ZM7.69549 0.991454V0.934937V0.991454ZM7.69549 15.0642V15.0077V15.0642ZM0.687376 7.99957H0.630859H0.687376ZM14.7601 7.99957H14.7036H14.7601ZM2.74318 3.04726L2.65134 2.95542L2.74318 3.04726Z" stroke="#B65535" stroke-width="1.06838" stroke-linecap="round" stroke-linejoin="round"/>
</svg>
